<?xml version="1.0" encoding="UTF-8"?>
<svg width="17px" height="21px" viewBox="0 0 17 21" version="1.1" xmlns="http://www.w3.org/2000/svg" xmlns:xlink="http://www.w3.org/1999/xlink">
    <!-- Generator: Sketch 48.2 (47327) - http://www.bohemiancoding.com/sketch -->
    <title>man-user</title>
    <desc>Created with Sketch.</desc>
    <defs></defs>
    <g id="AutoCorrelation-13-Copy" stroke="none" stroke-width="1" fill="none" fill-rule="evenodd" transform="translate(-485.000000, -426.000000)">
        <g id="Spider-Graph" transform="translate(171.000000, 407.000000)" fill="#A5A9AB" fill-rule="nonzero">
            <g id="Group-11" transform="translate(185.000000, 18.000000)">
                <g id="man-user" transform="translate(129.000000, 1.000000)">
                    <path d="M8.00005677,9 C10.2090713,9 12,6.98530142 12,4.50002629 C12,2.01469858 11.4120118,0 8.00005677,0 C4.58810173,0 4,2.01469858 4,4.50002629 C4,6.98530142 5.7909287,9 8.00005677,9 Z" id="Shape"></path>
                    <path d="M0.00947422327,17.6772313 C0.00126930524,16.3594363 -0.0069356128,17.3059442 0.00947422327,17.6772313 Z" id="Shape"></path>
                    <path d="M16,17.6772313 C16.0259822,17.4731232 16.0088887,16.2611501 16,17.6772313 Z" id="Shape"></path>
                    <path d="M15.9910435,17.7047893 C15.9125992,12.4466794 15.2661698,10.9484036 10.3194879,10 C10.3194879,10 9.62316663,10.9425926 8.00018033,10.9425926 C6.37719404,10.9425926 5.68075258,10 5.68075258,10 C0.788050012,10.9380587 0.102308247,12.4141124 0.0121423419,17.5339719 C0.00474873768,17.9520434 0.00132243328,17.9740102 0,17.9254789 C0.000300553018,18.0164112 0.000661216639,18.1846105 0.000661216639,18.4779055 C0.000661216639,18.4779055 1.17834816,21 8.00018033,21 C14.8218923,21 15.9996994,18.4779055 15.9996994,18.4779055 C15.9996994,18.2894636 15.9998197,18.1584291 16,18.0692848 C15.9986776,18.0992976 15.9960327,18.0411239 15.9910435,17.7047893 Z" id="Shape"></path>
                </g>
            </g>
        </g>
    </g>
</svg>
