<?xml version="1.0" standalone="no"?>
<!DOCTYPE svg PUBLIC "-//W3C//DTD SVG 1.1//EN" "http://www.w3.org/Graphics/SVG/1.1/DTD/svg11.dtd" >
<svg xmlns="http://www.w3.org/2000/svg">
<metadata>
<json>
<![CDATA[
{
	"fontFamily": "patternex",
	"majorVersion": 1,
	"minorVersion": 0,
	"version": "Version 1.0",
	"fontId": "patternex",
	"psName": "patternex",
	"subFamily": "Regular",
	"fullName": "patternex",
	"description": "Font generated by IcoMoon."
}
]]>
</json>
</metadata>
<defs>
<font id="patternex" horiz-adv-x="1024">
<font-face units-per-em="1024" ascent="960" descent="-64" />
<missing-glyph horiz-adv-x="1024" />
<glyph unicode="&#x20;" horiz-adv-x="512" d="" />
<glyph unicode="&#xe900;" glyph-name="cog" data-tags="settings (1)" d="M985.46 513.892l-101.326 16.903c-7.364 30.108-18.102 58.889-32.086 85.732l64.866 80.427c13.796 16.997 13.169 41.453-1.376 57.858l-40.299 45.354c-14.608 16.387-38.832 19.853-57.31 8.179l-86.653-54.472c-38.113 26.629-81.285 46.292-127.857 57.702l-16.953 101.869c-3.557 21.57-22.223 37.397-44.135 37.397h-60.73c-21.867 0-40.596-15.827-44.074-37.397l-17.045-101.901c-38.504-9.427-74.606-24.644-107.552-44.686l-82.409 58.812c-17.761 12.689-42.155 10.705-57.655-4.762l-42.904-42.935c-15.466-15.499-17.45-39.894-4.728-57.655l58.949-82.566c-19.853-32.697-34.914-68.593-44.34-106.755l-102.449-17.107c-21.537-3.557-37.395-22.224-37.395-44.137v-60.682c0-21.91 15.858-40.58 37.395-44.137l102.449-17.107c7.741-31.403 18.979-61.399 33.915-89.211l-64.57-79.972c-13.749-16.981-13.172-41.453 1.373-57.843l40.268-45.355c14.609-16.418 38.846-19.821 57.326-8.177l87.902 55.218c37.194-25.44 79.272-44.138 124.425-55.218l17.045-101.886c3.48-21.571 22.207-37.398 44.074-37.398h60.73c21.912 0 40.578 15.826 44.135 37.397l16.981 101.886c38.024 9.3 73.667 24.253 106.32 43.951l85.842-61.309c17.729-12.734 42.142-10.737 57.625 4.779l42.921 42.92c15.448 15.452 17.54 39.833 4.711 57.626l-61.116 85.686c19.91 32.807 35.051 68.767 44.418 107.099l101.325 16.918c21.6 3.557 37.394 22.225 37.394 44.137v60.682c-0.032 21.909-15.826 40.576-37.428 44.135zM513.050 247.627c-105.898 0-191.786 85.904-191.786 191.786 0 105.898 85.888 191.786 191.786 191.786 105.88 0 191.784-85.888 191.784-191.786 0-105.882-85.904-191.786-191.784-191.786z" />
<glyph unicode="&#xe901;" glyph-name="confirm" data-tags="check-mark" d="M510.336 950.857c-281.408 0-510.336-228.928-510.336-510.336s228.928-510.336 510.336-510.336 510.336 228.928 510.336 510.336-228.992 510.336-510.336 510.336zM510.336 13.897c-235.529 0.255-426.397 191.101-426.688 426.596v0.028c0.255 235.551 191.138 426.433 426.664 426.688h0.024c235.551-0.255 426.433-191.138 426.688-426.664v-0.024c-0.255-235.551-191.138-426.433-426.664-426.688h-0.024zM731.072 636.425l-302.912-303.040-138.624 138.56c-7.475 7.055-17.582 11.391-28.702 11.391-23.116 0-41.856-18.74-41.856-41.856 0-11.136 4.349-21.256 11.44-28.755l-0.018 0.020 168.128-168.064c7.557-7.588 18.014-12.284 29.568-12.284s22.011 4.696 29.567 12.282l332.609 332.545c7.575 7.575 12.261 18.040 12.261 29.6 0 23.119-18.742 41.861-41.861 41.861-11.56 0-22.025-4.685-29.6-12.261v0z" />
<glyph unicode="&#xe902;" glyph-name="suspicious" data-tags="exclamation" d="M512 950.857c-283.008 0-512-228.992-512-512s228.992-512 512-512c283.008 0 512 228.992 512 512s-228.992 512-512 512zM512 6.857c-0.076 0-0.166 0-0.256 0-238.446 0-431.744 193.298-431.744 431.744 0 0.090 0 0.18 0 0.27v-0.014c0 238.784 193.28 432 432 432 238.784 0 432-193.28 432-432 0-238.784-193.28-432-432-432zM512 693.129c-22.091 0-40-17.909-40-40v0-257.6c0-22.091 17.909-40 40-40s40 17.909 40 40v0 257.6c0 22.091-17.909 40-40 40v0zM576 252.553c0-35.346-28.654-64-64-64s-64 28.654-64 64c0 35.346 28.654 64 64 64s64-28.654 64-64z" />
<glyph unicode="&#xe903;" glyph-name="empty" data-tags="ok-appproval-acceptance" d="M668.902 622.804l71.757-71.757-287.007-287.026-179.439 179.391 71.757 71.757 107.635-107.635 215.298 215.27zM1014.889 747.885v-608.935c0-111.645-91.327-202.982-202.982-202.982h-608.935c-111.645 0-202.972 91.337-202.972 202.982v608.935c0 111.645 91.327 202.972 202.972 202.972h608.926c111.664 0 202.991-91.327 202.991-202.972zM888.028 443.422c0 210.236-170.376 380.583-380.593 380.583-210.236 0-380.583-170.348-380.583-380.583 0-210.217 170.348-380.593 380.583-380.593 210.217 0 380.593 170.376 380.593 380.593z" />
<glyph unicode="&#xe904;" glyph-name="hosting" data-tags="hosting" horiz-adv-x="1243" d="M985.966 585.143h-655.36c-20.919 0-38.034-18.139-38.034-40.594v-138.24c0-22.455 17.115-40.594 38.034-40.594h655.36c20.919 0 38.034 18.139 38.034 40.594v138.24c0 22.455-17.115 40.594-38.034 40.594zM361.106 488.887c-12.946 0-23.406 11.191-23.406 25.015 0 13.897 10.459 25.088 23.406 25.088 13.019 0 23.406-11.264 23.406-25.088 0-13.897-10.386-25.015-23.406-25.015zM924.014 416.622h-165.522v58.807h165.595v-58.807zM985.966 365.714h-655.36c-20.919 0-38.034-18.139-38.034-40.594v-138.24c0-22.455 17.115-40.594 38.034-40.594h655.36c20.919 0 38.034 18.139 38.034 40.594v138.24c0 22.455-17.115 40.594-38.034 40.594zM361.106 269.458c-12.946 0-23.406 11.118-23.406 25.015 0 13.824 10.459 25.088 23.406 25.088 13.019 0 23.406-11.264 23.406-25.088 0-13.897-10.386-25.015-23.406-25.015zM924.014 197.193h-165.522v58.807h165.595v-58.807zM985.966 146.286h-655.36c-20.919 0-38.034-18.139-38.034-40.594v-138.24c0-22.455 17.115-40.594 38.034-40.594h655.36c20.919 0 38.034 18.139 38.034 40.594v138.24c0 22.455-17.115 40.594-38.034 40.594zM361.106 50.030c-12.946 0-23.406 11.118-23.406 25.088 0 13.824 10.459 25.015 23.406 25.015 13.019 0 23.406-11.191 23.406-25.015 0-13.97-10.386-25.088-23.406-25.088zM924.014-22.236h-165.522v58.807h165.595v-58.807zM994.816 759.223c-9.341 0.85-17.412 5.659-22.613 12.713l-0.061 0.087c-50.199 67.776-129.897 111.231-219.745 111.231-5.318 0-10.6-0.152-15.842-0.453l0.725 0.033c-0.554-0.035-1.202-0.055-1.855-0.055-7.175 0-13.785 2.414-19.065 6.473l0.074-0.055c-50.14 38.477-113.773 61.66-182.82 61.66-0.116 0-0.232 0-0.347 0h0.018c-121.186-0.073-225.794-70.98-274.667-173.557l-0.789-1.839c-4.533-9.49-13.399-16.273-23.965-17.826l-0.172-0.021c-132.938-20.001-233.692-133.425-233.692-270.382 0-0.138 0-0.277 0-0.415v0.022c0-0.067 0-0.146 0-0.226 0-130.45 91.359-239.561 213.585-266.843l1.821-0.341v81.189c0 10.167 1.902 19.749 4.974 28.891-66.435 22.633-113.371 84.487-113.371 157.303 0 0.010 0 0.019 0 0.029v-0.001c0 0.109 0 0.238 0 0.367 0 91.037 73.592 164.886 164.532 165.301h0.040c4.608 0 9.143-0.366 13.605-0.731 1.274-0.108 2.756-0.169 4.253-0.169 25.034 0 46.054 17.181 51.915 40.394l0.079 0.37c21.876 87.079 99.389 150.563 191.76 150.747h0.021c51.931 0 101.083-20.187 138.313-56.759 9.607-9.47 22.807-15.318 37.372-15.318 3.861 0 7.625 0.411 11.253 1.191l-0.35-0.063c10.225 2.276 21.969 3.58 34.017 3.58 65.008 0 121.149-37.963 147.465-92.928l0.424-0.984c8.795-18.123 27.058-30.397 48.188-30.397 1.859 0 3.697 0.095 5.507 0.281l-0.227-0.019c4.737 0.482 10.236 0.757 15.799 0.757 91.294 0 165.303-74.009 165.303-165.303 0-0.112 0-0.224 0-0.335v0.017c-0.021-72.798-46.951-134.629-112.204-156.911l-1.167-0.346c3.145-9.143 4.974-18.798 4.974-28.891v-81.262c124.119 27.567 215.552 136.714 215.552 267.216 0 0.042 0 0.085 0 0.127v-0.007c0 142.921-109.568 260.608-248.613 272.384z" />
<glyph unicode="&#xe905;" glyph-name="deny" data-tags="icon-4" d="M512 950.857c-282.77 0-512-229.23-512-512s229.23-512 512-512v0c282.77 0 512 229.23 512 512s-229.23 512-512 512v0zM512 822.857c83.331-0.132 160.359-27.009 222.987-72.504l-1.099 0.76-534.272-534.016c-44.677 61.502-71.51 138.487-71.616 221.734v0.026c0 211.776 172.224 384 384 384zM512 54.857c-83.331 0.132-160.359 27.009-222.987 72.504l1.099-0.76 534.272 534.016c44.677-61.502 71.51-138.487 71.616-221.734v-0.026c0-211.776-172.224-384-384-384z" />
<glyph unicode="&#xe906;" glyph-name="laptop" data-tags="laptop-icon" horiz-adv-x="1195" d="M126.891 114.59h940.8c37.158 0.096 67.244 30.241 67.244 67.413 0 0.15 0 0.3-0.001 0.45v-0.023 677.973c0 50.005-40.107 90.453-89.6 90.453h-896c-49.493 0-89.6-40.448-89.6-90.453v-677.973c0-37.547 30.123-67.84 67.157-67.84zM171.861 837.705h850.944v-609.963h-850.944v609.963zM1172.48 114.59h-1150.293c-0.077 0.001-0.167 0.002-0.257 0.002-12.022 0-21.785-9.674-21.929-21.663v-80.057c0-42.837 44.715-77.483 99.84-77.483h994.987c55.211 0 99.84 34.731 99.84 77.483v80.043c-0.144 12.002-9.907 21.676-21.929 21.676-0.091 0-0.181-0.001-0.271-0.002h0.014zM736.085 3.316h-277.504c-0.102-0.002-0.222-0.003-0.343-0.003-12.023 0-21.786 9.675-21.929 21.664v0.013c0 11.947 9.984 21.589 22.187 21.589h277.589c12.373 0 22.187-9.643 22.187-21.589s-9.813-21.675-22.187-21.675z" />
<glyph unicode="&#xe907;" glyph-name="user" data-tags="man-user" horiz-adv-x="805" d="M384 502.857c106.057 0 192 100.279 192 223.963 0 123.831-28.233 224.037-192 224.037-163.84 0-192-100.279-192-224.037 0-123.611 85.943-223.963 192-223.963zM0.439 86.82c-0.366 62.318-0.731 17.554 0 0zM768 86.82c1.243 9.655 0.439 66.926 0 0zM767.561 80.238c-3.73 244.736-34.816 314.514-272.238 358.619 0 0-33.426-43.886-111.323-43.886s-111.323 43.886-111.323 43.886c-234.789-43.666-267.703-112.347-272.091-350.647-0.366-19.456-0.512-20.48-0.585-18.286v-25.673s56.539-117.394 384-117.394 384 117.394 384 117.394v19.017c0-1.463-0.219 1.317-0.439 16.969z" />
<glyph unicode="&#xe908;" glyph-name="search" data-tags="search" horiz-adv-x="910" d="M896.341 18.107l-224.37 253.497c55.728 72.245 89.321 164.054 89.321 263.71 0 0.73-0.002 1.459-0.005 2.188v-0.113c0 228.011-170.667 413.468-380.587 413.468-210.034 0-380.7-185.458-380.7-413.468 0-227.897 170.667-413.355 380.7-413.355 78.734 0 153.828 25.714 217.998 74.752l226.19-255.431c8.701-10.069 21.464-16.424 35.713-16.498h0.013c12.857 0 25.031 5.348 34.361 15.019 9.419 10.186 15.196 23.86 15.196 38.883 0 14.301-5.235 27.379-13.893 37.423l0.063-0.074zM380.7 842.996c155.079 0 281.259-137.102 281.259-305.607 0-168.391-126.18-305.607-281.259-305.607-155.193 0-281.372 137.102-281.372 305.607s126.18 305.607 281.372 305.607z" />
<glyph unicode="&#xe909;" glyph-name="inspect" data-tags="search-1" horiz-adv-x="1216" d="M1197.12 350.345c0 163.84-128.192 298.624-289.408 307.84-10.56 162.56-145.28 290.688-309.12 290.688s-298.752-128.192-309.312-290.688c-161.088-9.216-289.28-144-289.28-307.84 0.218-170.669 138.514-308.965 309.163-309.184h511.381l89.856-89.856c15.808-15.872 35.648-23.808 58.112-23.808 22.4 0 42.24 7.936 58.112 23.808s23.808 35.648 23.808 58.112-7.936 42.304-23.808 58.176l-5.248 3.968c105.664 51.52 175.744 159.872 175.744 278.784zM998.912-20.983c-7.725-7.373-18.213-11.91-29.76-11.91s-22.035 4.537-29.777 11.926l0.017-0.016-198.144 198.272c24.091 15.753 44.599 34.571 61.668 56.226l0.412 0.542 195.584-195.52c7.357-7.403 11.905-17.606 11.905-28.871 0-0.088 0-0.175-0.001-0.263v0.013c0.010-0.342 0.016-0.744 0.016-1.147 0-11.388-4.548-21.714-11.927-29.261l0.008 0.008zM598.528 173.257c-121.058 0.182-219.146 98.27-219.328 219.311v0.017c0 121.6 99.136 219.392 219.328 219.392 120.892-0.65 218.714-98.496 219.328-219.333v-0.059c-0.182-121.058-98.27-219.146-219.311-219.328h-0.017zM990.976 101.897l-165.12 165.184c21.12 36.992 32.96 80.64 32.96 125.504-0.218 142.936-116.013 258.753-258.92 259.008h-0.024c-142.959-0.218-258.79-116.050-259.008-258.987v-0.021c-1.28-142.72 115.008-258.944 257.664-258.944 38.336 0 73.984 7.936 105.728 22.4l76.608-76.544h-471.68c-148.797 0.146-269.386 120.712-269.568 269.487v0.017c0.146 148.819 120.748 269.422 269.554 269.568h0.014c10.56 0 19.84 9.216 19.84 19.84 0.218 148.742 120.757 269.258 269.486 269.44h0.018c0.171 0 0.374 0.001 0.577 0.001 148.56 0 268.992-120.432 268.992-268.992 0-0.203 0-0.405-0.001-0.608v0.031c0-10.56 9.216-19.84 19.84-19.84 148.747-0.182 269.286-120.698 269.504-269.419v-0.021c-0.575-110.996-68.351-206.019-164.695-246.508l-1.769-0.66zM598.528 567.049c-95.453-0.362-172.73-77.662-173.056-173.089v-0.031c0.362-95.43 77.626-172.694 173.021-173.056h0.035c95.458 0.326 172.758 77.603 173.12 173.021v0.035c-0.326 95.48-77.64 172.794-173.089 173.12h-0.031zM598.528 259.209c-0.095 0-0.208 0-0.32 0-73.52 0-133.12 59.6-133.12 133.12 0 0.090 0 0.18 0 0.27v-0.014c0 0.114-0.001 0.249-0.001 0.384 0 73.52 59.6 133.12 133.12 133.12 0.113 0 0.225 0 0.338 0h-0.018c0.095 0 0.208 0 0.321 0 73.52 0 133.12-59.6 133.12-133.12 0-0.135 0-0.27-0.001-0.405v0.021c-0.29-73.58-59.86-133.15-133.412-133.44h-0.028zM584 840.521c-10.844-0.278-19.562-8.996-19.839-19.814l-0.001-0.026c0-10.56 9.28-19.84 19.84-19.84 105.775-0.073 191.507-85.782 191.616-191.541v-0.011c0-10.56 9.216-19.84 19.84-19.84 10.56 0 19.84 9.28 19.84 19.84 1.28 126.848-103.104 231.232-231.296 231.232z" />
<glyph unicode="&#xe90a;" glyph-name="malicious" data-tags="warning-1" horiz-adv-x="1152" d="M558.464 231.369c-31.561-0.357-57.051-25.847-57.408-57.374v-0.034c0-31.232 26.176-57.408 57.408-57.408 30.080 0 57.344 26.176 56 56 0.043 0.822 0.068 1.784 0.068 2.752 0 30.963-25.101 56.064-56.064 56.064-0.001 0-0.003 0-0.004 0v0zM1089.728 27.977c36.032 62.144 36.288 136.32 0.448 198.336l-359.552 622.656c-34.101 60.019-97.6 99.846-170.4 99.846-0.529 0-1.057-0.002-1.585-0.006l0.081 0.001c-72.064 0-136.32-37.376-171.968-99.648l-360-623.36c-35.84-62.656-35.584-137.28 0.64-199.488 34.57-59.289 97.859-98.5 170.306-98.5 0.427 0 0.853 0.001 1.279 0.004h718.142c0.211-0.001 0.46-0.001 0.71-0.001 73.306 0 137.297 39.886 171.453 99.14l0.509 0.957zM1011.648 72.905c-19.023-32.996-54.107-54.849-94.295-54.849-0.172 0-0.343 0-0.515 0.001h-718.182c-39.040 0-74.176 19.968-93.696 53.76-9.351 15.717-14.878 34.656-14.878 54.885 0 20.095 5.454 38.916 14.963 55.064l-0.277-0.508 360 623.168c19.52 34.176 54.4 54.4 93.888 54.4 39.296 0 74.368-20.48 93.888-54.656l359.808-623.104c9.005-15.359 14.323-33.825 14.323-53.532 0-20.154-5.561-39.008-15.233-55.113l0.27 0.485zM544.192 634.313c-27.328-7.808-44.288-32.64-44.288-62.72 1.344-18.112 2.56-36.48 3.84-54.656l11.776-205.952c0.914-22.499 19.375-40.393 42.015-40.393 0.304 0 0.607 0.003 0.91 0.010l-0.045-0.001c0.023 0 0.050 0 0.078 0 23.299 0 42.259 18.583 42.865 41.736l0.001 0.056c0 14.208 0 27.328 1.408 41.792l7.808 132.928c1.344 28.672 3.84 57.408 5.248 86.080 0 10.368-1.344 19.52-5.248 28.736-9.226 20.243-29.285 34.061-52.571 34.061-4.899 0-9.655-0.612-14.196-1.762l0.398 0.086z" />
<glyph unicode="&#xe90b;" glyph-name="world" data-tags="world" d="M904.046 731.794l-14.775-4.681-78.702-7.022-22.235-35.474-16.091 5.12-62.683 56.466-9.070 29.33-12.142 31.305-39.424 35.328-46.373 9.070-1.097-21.211 45.495-44.398 22.235-26.258-25.015-13.019-20.334 5.998-30.574 12.727 1.024 24.576-40.009 16.53-13.312-57.929-40.375-9.143 4.023-32.256 52.59-10.167 9.070 51.639 43.447-6.437 20.187-11.849h32.329l22.162-44.398 58.807-59.611-4.389-23.113-47.323 5.998-81.92-41.326-58.88-70.729-7.68-31.305h-21.211l-39.351 18.213-38.327-18.213 9.509-40.375 16.677 19.237 29.257 0.878-1.975-36.279 24.283-7.095 24.21-27.209 39.57 11.118 45.202-7.168 52.517-14.117 26.258-3.072 44.398-50.469 85.797-50.469-55.442-105.984-58.587-27.209-22.235-60.635-84.773-56.539-8.997-32.622c218.35 53.974 377.717 248.119 377.856 479.509v0.015c0 101.669-30.866 196.242-83.602 274.725zM550.619 198.948l-35.913 66.706 32.987 68.754-32.987 9.874-37.083 37.23-82.139 18.432-27.209 57.051v-33.865h-12.069l-70.729 95.89v78.848l-51.931 84.334-82.359-14.629h-55.369l-27.941 18.286 35.621 28.233-35.547-8.265c-42.564-71.201-67.73-157.055-67.73-248.787 0-0.016 0-0.032 0-0.048v0.003c0-272.686 221.034-493.746 493.71-493.787h0.004c20.992 0 41.618 1.829 61.952 4.315l-5.12 59.758s22.674 88.869 22.674 91.867c0 3.072-22.674 79.726-22.674 79.726zM183.589 791.625l87.771 12.215 40.375 22.162 45.495-13.166 72.704 4.096 24.869 39.131 36.352-5.998 88.137 8.265 24.357 26.843 34.231 22.894 48.494-7.314 17.627 2.633c-61.725 29.971-134.265 47.49-210.898 47.49-152.716 0-289.182-69.575-379.43-178.757l-0.666-0.83h0.293l70.29 20.334zM514.706 901.778l50.469 27.794 32.329-18.798-46.811-35.621-44.837-4.535-20.114 13.093 28.965 18.066zM365.349 897.682l22.235-9.289 29.184 9.289 15.872-27.502-67.291-17.627-32.329 18.871s31.598 20.407 32.329 26.331z" />
<glyph unicode="&#xe90c;" glyph-name="profile" data-tags="profile" d="M1024 438.857c0 282.307-229.693 512-512 512s-512-229.693-512-512c0-149.113 64.121-283.518 166.186-377.167l-0.484-0.428 16.607-14.001c1.080-0.912 2.253-1.657 3.333-2.551 8.825-7.317 17.967-14.262 27.276-20.983 3.016-2.178 6.032-4.357 9.104-6.479 9.942-6.851 20.145-13.349 30.571-19.512 2.271-1.341 4.561-2.644 6.851-3.947 11.413-6.498 23.068-12.623 35.002-18.246 0.875-0.41 1.769-0.782 2.644-1.192 38.893-18.078 80.412-31.353 123.83-39.191 1.136-0.205 2.271-0.41 3.426-0.614 13.48-2.327 27.108-4.189 40.904-5.437 1.676-0.149 3.351-0.242 5.046-0.391 13.74-1.136 27.629-1.862 41.705-1.862 13.945 0 27.704 0.726 41.37 1.825 1.731 0.149 3.463 0.242 5.194 0.391 13.684 1.247 27.201 3.053 40.55 5.343 1.154 0.205 2.327 0.41 3.482 0.633 42.766 7.671 83.689 20.648 122.079 38.26 1.415 0.652 2.849 1.266 4.264 1.936 11.487 5.399 22.714 11.227 33.718 17.427 2.737 1.545 5.455 3.109 8.173 4.71 10.017 5.902 19.866 12.065 29.435 18.618 3.444 2.346 6.814 4.822 10.221 7.28 8.173 5.883 16.198 11.953 23.999 18.302 1.731 1.396 3.593 2.607 5.288 4.040l17.036 14.224-0.503 0.428c102.959 93.687 167.694 228.706 167.694 378.582zM37.236 438.857c0 261.79 212.973 474.764 474.764 474.764s474.764-212.973 474.764-474.764c0-141.070-61.905-267.897-159.912-354.918-5.474 3.779-10.985 7.168-16.626 9.998l-157.64 78.811c-14.15 7.075-22.938 21.299-22.938 37.106v55.054c3.649 4.506 7.503 9.607 11.487 15.211 20.406 28.821 36.771 60.881 48.705 95.381 23.589 11.208 38.819 34.704 38.819 61.235v66.001c0 16.142-5.921 31.8-16.514 44.106v86.891c0.968 9.681 4.394 64.195-35.058 109.177-34.313 39.173-89.851 59.001-165.087 59.001s-130.774-19.828-165.087-58.982c-39.452-44.982-36.026-99.533-35.058-109.177v-86.891c-10.575-12.307-16.514-27.965-16.514-44.106v-66.001c0-20.499 9.197-39.619 24.948-52.522 15.081-59.075 46.117-103.796 57.586-118.952v-53.881c0-15.192-8.285-29.156-21.634-36.454l-147.214-80.3c-4.692-2.551-9.346-5.53-14.001-8.862-96.796 86.984-157.789 213.029-157.789 353.075z" />
<glyph unicode="&#xe90d;" glyph-name="unknown" data-tags="help-button" d="M499.752 224.503c-20.211 0-36.746-16.536-36.746-36.746v-24.497c0-20.211 16.536-36.746 36.746-36.746s36.746 16.536 36.746 36.746v24.497c0 20.211-16.536 36.746-36.746 36.746zM512.001-73.143c282.336 0 512.001 229.665 512.001 512.001s-229.667 511.999-512.001 511.999-512.001-229.665-512.001-512.001 229.665-511.999 512.001-511.999zM512.001 877.364c241.915 0 438.508-196.593 438.508-438.508s-196.593-438.508-438.508-438.508-438.508 196.596-438.508 438.508 196.593 438.508 438.508 438.508zM352.766 530.722c0.612 0 0.612 0 0 0 20.211 0 36.746 15.31 36.746 35.521 0 0 0.612 29.397 15.31 58.183 18.373 36.746 50.833 55.12 98.604 55.12 44.707 0 77.779-12.25 96.152-36.135 15.31-19.599 19.599-46.545 12.25-75.942-9.187-36.135-40.421-67.369-70.43-97.99-36.746-37.972-75.33-76.556-75.33-128.613 0-20.211 16.536-36.746 36.746-36.746s36.746 16.536 36.746 36.746c0 22.048 26.334 48.996 54.508 77.168 34.909 35.521 74.718 75.942 88.803 131.062 13.473 50.833 4.286 101.664-25.111 139.025-22.66 29.397-67.981 64.918-153.723 64.918-96.152 0-142.086-51.445-164.133-95.541s-23.273-86.354-23.273-91.254c0-19.597 15.924-35.521 36.135-35.521z" />
<glyph unicode="&#xe90e;" glyph-name="top-view" data-tags="Group 2 (1)" horiz-adv-x="1502" d="M0-73.143h1501.867v409.6h-1501.867v-409.6zM0 541.257h409.6v409.6h-409.6v-409.6zM546.133 541.257h409.6v409.6h-409.6v-409.6zM1092.267 541.257h409.6v409.6h-409.6v-409.6z" />
<glyph unicode="&#xe90f;" glyph-name="bottom-view" data-tags="Group (1)" horiz-adv-x="1502" d="M0 950.857h1501.867v-409.6h-1501.867v409.6zM0 336.457h409.6v-409.6h-409.6v409.6zM546.133 336.457h409.6v-409.6h-409.6v409.6zM1092.267 336.457h409.6v-409.6h-409.6v409.6z" />
<glyph unicode="&#xe910;" glyph-name="atoms" data-tags="atoms" d="M903.913 167.218c-24.39 0-47.011-7.354-66.001-19.875l-180.876 181.76c-1.462 1.434-3.113 2.684-4.909 3.708l-0.118 0.062c22.229 29.092 35.617 65.971 35.617 105.978 0 56.537-26.738 106.83-68.259 138.922l-0.405 0.301 74.473 130.932c11.562-3.926 24.879-6.193 38.726-6.193 68.487 0 124.025 55.441 124.183 123.891v0.015c-0.079 68.443-55.515 123.911-123.938 124.044h-0.013c-68.492-0.079-123.991-55.595-124.044-124.085v-0.005c0-37.609 16.896-71.261 43.38-94.022l-74.426-130.746c-19.331 8.012-41.782 12.664-65.319 12.664-39.927 0-76.726-13.388-106.155-35.92l0.419 0.308c-0.372 0.465-0.652 0.931-1.071 1.303l-101.935 102.4c5.539 10.892 8.704 23.133 8.704 36.119 0 44.125-35.887 80.058-80.058 80.058s-80.058-35.933-80.058-80.058c0.094-44.196 35.943-79.987 80.151-79.987 13.838 0 26.857 3.507 38.217 9.68l-0.422-0.21 101.329-101.888 1.303-1.024c-22.505-29.116-36.073-66.136-36.073-106.324 0-0.060 0-0.121 0-0.181v0.009c0-35.188 10.426-67.956 28.3-95.418l-167.564-145.268c-20.189 15.099-45.639 24.183-73.211 24.204h-0.005c-68.405-0.079-123.831-55.538-123.857-123.948v-0.003c0.079-68.373 55.485-123.778 123.85-123.857h0.008c68.376 0.053 123.798 55.442 123.904 123.801v0.010c0 23.599-6.749 45.568-18.199 64.326l166.447 144.291c30.707-27.28 71.378-43.944 115.94-43.944 40.694 0 78.142 13.896 107.859 37.203l-0.38-0.287c0.977-1.676 2.141-3.305 3.584-4.748l180.876-181.76c-12.707-19.037-20.154-41.891-20.154-66.42 0.106-66.296 53.834-120.008 120.126-120.087h0.008c66.3 0.079 120.028 53.791 120.134 120.077v0.010c-0.106 66.28-53.808 119.981-120.077 120.087h-0.010z" />
<glyph unicode="&#xe911;" glyph-name="dashboard2" data-tags="dashboard" d="M568.879 950.857h455.121v-341.318h-455.121zM0 950.857h455.121v-568.879h-455.121zM0 268.175h455.121v-341.318h-455.121zM568.879 495.736h455.121v-568.879h-455.121z" />
<glyph unicode="&#xe912;" glyph-name="ipo" data-tags="ipo" d="M933.973 950.857c-49.621 0-89.984-40.363-89.984-90.027 0-9.813 2.005-19.157 4.949-28.032l-370.859-370.859c-8.352 3.118-18.003 4.923-28.075 4.923s-19.723-1.805-28.646-5.108l0.571 0.185-66.859 66.859c2.944 8.875 4.949 18.219 4.949 28.075 0 49.621-40.405 89.984-90.027 89.984s-90.027-40.363-90.027-90.027c0-9.813 2.005-19.157 4.949-28.032l-66.816-66.901c-8.363 2.999-18.012 4.787-28.063 4.906l-0.054 0.001c-49.621 0.043-89.984-40.32-89.984-89.984 0-49.579 40.363-89.941 90.027-89.941 49.621 0 89.984 40.363 89.984 89.984 0 17.664-5.333 34.048-14.165 48l56.149 56.149c13.909-8.832 30.293-14.165 48-14.165 17.837 0.047 34.432 5.323 48.345 14.376l-0.345-0.21 56.149-56.149c-8.832-13.952-14.165-30.293-14.165-48 0-49.621 40.405-90.027 90.027-90.027s90.027 40.405 90.027 90.027c0 17.664-5.333 34.048-14.165 48l360.107 360.149c13.952-8.832 30.336-14.165 48.043-14.165 49.621 0 89.984 40.363 89.984 90.027 0 49.621-40.363 89.984-90.027 89.984zM299.989 329.289v-402.432h120.021v282.453zM480 209.31v-282.453h121.6v403.627zM68.779 158.068c-5.429-5.426-8.787-12.923-8.789-21.205v0-180.011c0-16.597 13.44-29.995 29.995-29.995h150.016v402.432l-171.221-171.221zM664.021 390.43v-463.573h111.787v574.976zM972.8 698.057l-136.661-136.235v-634.965h157.867c16.566 0 29.995 13.429 29.995 29.995v0 720c0 26.709-32.427 40.107-51.2 21.205z" />
<glyph unicode="&#xe913;" glyph-name="link-symbol" data-tags="link-symbol" d="M971.171 325.984l-130.513 130.513c-35.095 35.095-77.731 52.689-127.953 52.689-51.014 0-94.487-18.432-130.513-55.203l-55.203 55.156c36.817 35.98 55.203 79.639 55.203 131.119 0 50.176-17.315 92.625-52.038 127.348l-129.257 129.862c-34.723 35.607-77.405 53.388-128 53.388-50.176 0-92.625-17.361-127.348-52.131l-92.207-91.555c-35.561-34.723-53.341-77.172-53.341-127.348s17.548-92.858 52.689-128l130.513-130.467c35.142-35.142 77.777-52.736 128-52.736 51.014 0 94.487 18.432 130.467 55.249l55.203-55.249c-36.771-35.933-55.203-79.639-55.203-131.119 0-50.176 17.361-92.625 52.084-127.348l129.257-129.862c34.723-35.514 77.359-53.295 128-53.295 50.176 0 92.625 17.315 127.302 52.038l92.253 91.601c35.561 34.723 53.341 77.172 53.341 127.348 0 50.223-17.594 92.858-52.736 128zM441.716 594.505c-1.257 1.21-5.12 5.213-11.59 11.916-4.44 4.658-8.84 9.058-13.343 13.351l-0.155 0.147c-3.548 3.115-7.431 6.2-11.461 9.092l-0.455 0.31c-8.413 6.486-19.104 10.396-30.707 10.396-0.889 0-1.772-0.023-2.649-0.068l0.123 0.005c-16.756 0-30.953-5.865-42.682-17.548-10.836-10.555-17.558-25.289-17.558-41.592 0-0.383 0.004-0.766 0.011-1.147l-0.001 0.057c0-6.237 0.698-12.009 2.188-17.222 1.443-5.26 4.189-10.566 8.145-16.012s7.121-9.402 9.402-11.916c2.327-2.513 6.796-6.982 13.498-13.498s10.705-10.333 11.916-11.636c-12.567-12.94-27.601-19.409-45.149-19.409-17.175 0-31.372 5.632-42.682 16.943l-130.56 130.467c-10.836 10.563-17.558 25.302-17.558 41.612 0 0.376 0.004 0.752 0.011 1.127l-0.001-0.056c0 16.291 5.865 30.301 17.548 42.031l92.253 91.601c12.102 11.311 26.345 16.943 42.636 16.943 16.756 0 30.953-5.865 42.682-17.594l129.257-129.862c11.683-11.683 17.548-25.926 17.548-42.636 0-17.548-6.889-32.861-20.713-45.801zM885.946 156l-92.253-91.601c-10.785-10.102-25.329-16.306-41.321-16.306-0.479 0-0.956 0.006-1.432 0.017l0.071-0.001c-17.129 0-31.325 5.585-42.636 16.896l-129.257 129.862c-10.836 10.555-17.557 25.288-17.557 41.591 0 0.367 0.003 0.734 0.010 1.099l-0.001-0.055c0 17.594 6.889 32.861 20.713 45.801 1.257-1.21 5.12-5.213 11.636-11.916 6.47-6.656 10.938-11.171 13.498-13.498 2.467-2.281 6.47-5.399 11.869-9.402 5.446-3.956 10.799-6.703 16.012-8.145 5.213-1.489 10.985-2.188 17.222-2.188 16.756 0 30.999 5.865 42.682 17.548 11.729 11.729 17.594 25.926 17.594 42.636 0 6.284-0.745 12.055-2.188 17.268-1.878 6.128-4.676 11.455-8.279 16.129l0.087-0.117c-3.202 4.484-6.286 8.367-9.55 12.088l0.148-0.172c-4.447 4.651-8.847 9.051-13.343 13.351l-0.155 0.148c-4.528 4.395-8.409 8.188-12.279 11.993l0.363-0.356c12.567 13.359 27.601 20.015 45.149 20.015 16.756 0 30.953-5.818 42.636-17.548l130.513-130.467c11.729-11.729 17.594-25.972 17.594-42.682 0-16.291-5.865-30.301-17.548-41.984z" />
<glyph unicode="&#xe914;" glyph-name="folder" data-tags="open-folder-with-document" d="M1017.391 341.81l-180.876-342.388c-8.844-16.989-33.978-35.002-53.341-35.002l-725.411-0.14c-0.014 0-0.030 0-0.047 0-31.876 0-57.716 25.84-57.716 57.716v0l0.14 563.386c0 31.837 25.786 57.716 57.67 57.716l53.062 0.093v-49.338h-35.514c-14.473 0-26.205-11.732-26.205-26.205v0l0.047-528.012c0-14.522 11.729-26.205 26.205-26.205h36.352l171.427 346.764c9.681 19.409 28.020 35.049 47.337 35.049h419.84l0.186 139.59c27.505-2.511 48.9-25.41 49.012-53.33v-86.26h192.605c22.714-0.233 41.891-22.714 25.228-53.527zM144.291 187.977c-1.583 172.684 0 690.548 0 690.548 0 26.159 21.271 47.383 47.337 47.383h379.252c6.051 0 11.869-2.513 15.965-6.982l122.601-133.213c3.547-3.86 5.722-9.030 5.725-14.708v-345.089h-39.75v315.299c-0.026 5.455-4.455 9.868-9.914 9.868 0 0 0 0 0 0h-93.836c0 0 0 0 0 0-10.986 0-19.895 8.893-19.921 19.872v105.289c0 0 0 0 0 0 0 5.459-4.412 9.888-9.865 9.914h-350.211c-4.19 0-7.587-3.397-7.587-7.587v0-647.121l-30.487-61.58s-9.216 0.698-9.356 18.153zM591.593 790.787h59.113l-59.113 64.233v-64.233zM613.143 710.543h-366.545c-13.522 0-24.483-10.961-24.483-24.483s10.961-24.483 24.483-24.483h366.545c12.881 0.819 23.019 11.467 23.019 24.483s-10.138 23.664-22.948 24.479l-0.071 0.004zM637.626 543.538c-0.026 13.502-10.978 24.436-24.483 24.436 0 0 0 0 0 0h-366.545c-12.856-0.818-22.974-11.446-22.974-24.436s10.118-23.618 22.903-24.433l0.071-0.004h366.545c13.498 0 24.483 10.938 24.483 24.436zM222.115 400.038c0-13.498 10.985-24.436 24.483-24.436h8.797c15.453 43.101 53.807 48.873 53.807 48.873h-62.604c0 0 0 0 0 0-13.505 0-24.456-10.935-24.483-24.434v-0.003z" />
<glyph unicode="&#xe915;" glyph-name="pie-chart2" data-tags="pie-chart-for-business-stats" d="M484.538 424.242l255.348-442.321c-66.311-33.949-144.653-53.861-227.641-53.9h-0.013c-282.857 0-512.233 229.376-512.233 512.233 0 272.058 212.247 493.987 480.209 510.604v-510.604c0-5.492 1.396-10.985 4.329-16.012zM1022.836 472.277h-478.58v478.58c257.378-16.557 462.022-221.201 478.503-477.076l0.078-1.504zM608.256 536.277h341.178c-38.593 170.63-170.549 302.585-338.176 340.606l-3.002 0.573v-341.178zM795.462 13.618c129.959 87.244 216.989 229.776 227.3 393.135l0.075 1.478h-455.121l227.747-394.612z" />
<glyph unicode="&#xe916;" glyph-name="presentation" data-tags="presentation-board-with-graph" d="M974.569 904.312c0 25.706-20.839 46.545-46.545 46.545v0h-814.545c-25.666-0.053-46.452-20.872-46.452-46.545 0 0 0 0 0 0v0c0-17.222 9.402-32.023 23.273-40.122v-536.111l46.545 42.543v487.145h767.953v-512h-599.831l-42.589-46.545h41.1l-83.689-313.809c-1.181-3.902-1.861-8.386-1.861-13.028 0-25.706 20.839-46.545 46.545-46.545 21.823 0 40.138 15.018 45.174 35.283l0.067 0.32 83.921 314.554h254.278l83.875-314.554c5.475-20.064 23.536-34.57 44.986-34.57 25.712 0 46.555 20.844 46.555 46.555 0 4.262-0.573 8.39-1.645 12.312l0.076-0.327-83.689 313.809h189.999c12.853 0 23.273 10.42 23.273 23.273v0 541.696c13.991 8.132 23.253 23.043 23.273 40.119v0.003zM555.706 433.039v174.545c0 25.706-20.839 46.545-46.545 46.545s-46.545-20.839-46.545-46.545v0-174.545c0-25.706 20.839-46.545 46.545-46.545s46.545 20.839 46.545 46.545v0zM706.979 433.039v337.455c0 25.706-20.839 46.545-46.545 46.545s-46.545-20.839-46.545-46.545v0-337.455c0-25.706 20.839-46.545 46.545-46.545s46.545 20.839 46.545 46.545v0zM858.205 433.039v244.364c0 25.706-20.839 46.545-46.545 46.545s-46.545-20.839-46.545-46.545v0-244.364c0-25.706 20.839-46.545 46.545-46.545s46.545 20.839 46.545 46.545v0zM393.309 527.433c-2.058 2.029-4.885 3.283-8.006 3.283s-5.948-1.253-8.007-3.284l0.001 0.001s-311.575-284.858-313.065-286.394c-5.48-5.48-8.869-13.049-8.869-21.411 0-16.723 13.557-30.28 30.28-30.28 8.361 0 15.931 3.389 21.411 8.869v0c1.489 1.489 286.255 313.065 286.255 313.065 2.057 2.063 3.329 4.909 3.329 8.052s-1.272 5.99-3.329 8.053v0z" />
<glyph unicode="&#xe917;" glyph-name="precision" data-tags="precision" d="M507.734 630.857c-105.856 0-192-86.144-192-192s86.144-192 192-192c105.856 0 192 86.144 192 192s-86.144 192-192 192zM507.734 310.857c-70.592 0-128 57.408-128 128s57.408 128 128 128c70.592 0 128-57.408 128-128s-57.408-128-128-128zM992 470.857h-97.6c-15.488 186.24-164.16 334.912-350.4 350.4v97.6c0 17.664-14.336 32-32 32s-32-14.336-32-32v-97.6c-186.24-15.488-334.912-164.224-350.4-350.4h-97.6c-17.664 0-32-14.336-32-32s14.336-32 32-32h97.6c15.488-186.24 164.16-334.912 350.4-350.4v-97.6c0-17.664 14.336-32 32-32s32 14.336 32 32v97.6c186.24 15.488 334.912 164.16 350.4 350.4h97.6c17.664 0 32 14.272 32 32 0 17.6-14.336 32-32 32zM512 118.857c-176.448 0-320 143.552-320 320s143.552 320 320 320c176.448 0 320-143.552 320-320s-143.552-320-320-320z" />
<glyph unicode="&#xe918;" glyph-name="price-tag" data-tags="price-tag" d="M1010.449 945.856c-6.673 6.673-17.459 6.673-24.132 0l-63.266-63.266h-397.363l-499.541-503.654c-11.366-11.366-17.63-26.505-17.63-42.581s6.263-31.215 17.63-42.581l349.286-349.286c11.725-11.725 27.102-17.596 42.513-17.596 15.479 0 30.959 5.922 42.82 17.766l486.417 499.558v414.242l63.266 63.266c6.673 6.673 6.673 17.459 0 24.132zM913.050 458.074l-476.587-489.455c-10.172-10.172-26.726-10.172-36.898 0l-349.286 349.286c-10.172 10.172-10.172 26.726 0.051 36.949l489.591 493.602h348.996l-82.483-82.483c-13.5 8.943-29.628 14.217-46.985 14.217-47.053 0-85.333-38.281-85.333-85.333s38.281-85.333 85.333-85.333c47.053 0 85.333 38.281 85.333 85.333 0 17.357-5.274 33.485-14.217 46.985l82.483 82.483v-366.251zM810.65 694.857c0-28.228-22.972-51.2-51.2-51.2s-51.2 22.972-51.2 51.2c0 28.228 22.972 51.2 51.2 51.2 7.885 0 15.258-1.946 21.931-5.137l-33.997-33.997c-6.673-6.673-6.673-17.459 0-24.132 3.328-3.328 7.697-5.001 12.066-5.001s8.738 1.673 12.066 5.001l33.997 33.997c3.209-6.673 5.137-14.046 5.137-21.931z" />
<glyph unicode="&#xe919;" glyph-name="share-1" data-tags="share-1" horiz-adv-x="1463" d="M537.6 213.211c0 26.331-5.12 51.2-12.215 75.41l454.51 232.375c49.167-65.568 126.676-107.568 214-107.666h0.016c148.434 0 268.763 120.329 268.763 268.763s-120.329 268.763-268.763 268.763v0c-148.397-0.042-268.685-120.33-268.727-268.723v-0.004c0-24.283 4.315-47.397 10.386-69.778l-456.558-233.472c-49.268 62.808-125.072 102.861-210.241 103.131h-0.045c-148.414 0-268.727-120.313-268.727-268.727 0-0.026 0-0.051 0-0.077v0.004c0-0.043 0-0.095 0-0.146 0-148.373 120.28-268.654 268.654-268.654 0.026 0 0.051 0 0.077 0h-0.004c43.959 0 127.049-6.217 210.286 82.286 83.383 88.503 58.587 174.373 58.587 186.514z" />
<glyph unicode="&#xe91a;" glyph-name="success" data-tags="success" d="M512 950.857c-282.77 0-512-229.23-512-512s229.23-512 512-512v0c282.77 0 512 229.23 512 512s-229.23 512-512 512v0zM418.048 175.817l-225.408 225.536 75.136 75.136 150.272-150.272 338.176 338.112 75.136-75.136-413.312-413.248z" />
<glyph unicode="&#xe91b;" glyph-name="info" data-tags="info" d="M1003.776-14.775c-12.672 7.36-89.536 54.912-130.624 140.992 96 89.856 150.656 214.784 150.656 342.656 0 264.64-230.72 481.984-511.808 481.984-281.28 0-512-217.344-512-481.92 0-264.704 230.72-482.048 511.936-482.048 37.76 0 78.272 3.584 134.208 15.36 147.008-78.144 278.976-75.968 329.152-75.2 22.4 0.32 38.592-3.776 46.912 19.328 1.108 3.029 1.748 6.526 1.748 10.172 0 13.137-8.315 24.331-19.969 28.608l-0.211 0.068zM571.904 226.889c0-33.137-26.863-60-60-60s-60 26.863-60 60v242.048c0 33.137 26.863 60 60 60s60-26.863 60-60v-241.92zM511.936 620.873c-33.137 0-60 26.863-60 60s26.863 60 60 60v0c33.137 0 60-26.863 60-60s-26.863-60-60-60v0z" />
<glyph unicode="&#xe91c;" glyph-name="error" data-tags="error" d="M512 950.857c-283.904 0-512-228.096-512-512s228.096-512 512-512 512 228.096 512 512-228.096 512-512 512zM586.496 429.577l174.528-174.592c4.672-4.608 6.976-11.648 6.976-16.256-0.303-6.37-2.931-12.073-7.047-16.327l0.007 0.007-32.512-32.576c-4.255-4.086-9.958-6.692-16.266-6.974l-0.054-0.002c-0.151-0.004-0.33-0.006-0.509-0.006-6.248 0-11.863 2.713-15.73 7.026l-0.018 0.020-174.592 174.4c-2.053 2.138-4.936 3.466-8.128 3.466s-6.075-1.328-8.124-3.462l-174.532-174.404c-4.255-4.086-9.958-6.692-16.266-6.974l-0.054-0.002c-0.151-0.004-0.33-0.006-0.509-0.006-6.248 0-11.863 2.713-15.73 7.026l-0.018 0.020-32.64 32.512c-4.086 4.255-6.692 9.958-6.974 16.266l-0.002 0.054c0 4.608 2.368 11.648 7.040 16.256l174.528 174.592c2.138 2.053 3.466 4.936 3.466 8.128s-1.328 6.075-3.462 8.124l-174.596 174.468c-4.086 4.255-6.692 9.958-6.974 16.266l-0.002 0.054c0 4.672 2.368 11.648 7.040 16.256l32.576 32.64c4.24 4.072 9.918 6.675 16.199 6.974l0.057 0.002c4.672 0 11.648-2.368 16.32-7.040l174.464-174.464c2.053-2.138 4.936-3.466 8.128-3.466s6.075 1.328 8.124 3.462l174.596 174.596c4.24 4.072 9.918 6.675 16.199 6.974l0.057 0.002c0.17 0.005 0.37 0.008 0.571 0.008 6.249 0 11.864-2.714 15.731-7.028l0.018-0.020 32.576-32.576c4.672-4.608 6.976-11.584 6.976-16.256-0.303-6.37-2.931-12.073-7.047-16.327l0.007 0.007-174.336-174.528c-4.672-2.304-4.672-11.648 0-16.256z" />
<glyph unicode="&#xe91d;" glyph-name="spider" data-tags="spider" d="M585.143 365.714c-80.666 0-146.286-65.62-146.286-146.286s65.62-146.286 146.286-146.286c80.666 0 146.286 65.62 146.286 146.286s-65.62 146.286-146.286 146.286zM585.143 114.939c-57.616 0-104.49 46.874-104.49 104.49s46.874 104.49 104.49 104.49c57.616 0 104.49-46.874 104.49-104.49s-46.874-104.49-104.49-104.49zM804.571 585.143c-80.666 0-146.286-65.62-146.286-146.286s65.62-146.286 146.286-146.286c80.666 0 146.286 65.62 146.286 146.286s-65.62 146.286-146.286 146.286zM804.571 334.367c-57.616 0-104.49 46.874-104.49 104.49s46.874 104.49 104.49 104.49c57.616 0 104.49-46.874 104.49-104.49s-46.874-104.49-104.49-104.49zM904.533 165.79c-65.348 0-118.545-52.753-119.381-117.897l-546.287 48.196c0 0.478 0.068 0.956 0.068 1.434 0 38.161-18.057 72.107-45.995 94.003l90.505 211.166c17.169-9.557 36.898-15.036 57.89-15.036 65.877 0 119.467 53.589 119.467 119.467 0 16.691-3.465 32.563-9.66 47.002l276.292 184.183c20.463-16.469 46.438-26.385 74.701-26.385 65.877 0 119.467 53.589 119.467 119.467s-53.589 119.467-119.467 119.467c-60.058 0-109.773-44.595-118.101-102.4h-446.464c-8.329 57.805-58.044 102.4-118.101 102.4-65.877 0-119.467-53.589-119.467-119.467s53.589-119.467 119.467-119.467c60.058 0 109.773 44.595 118.101 102.4h446.464c2.679-18.62 9.574-35.874 19.831-50.688l-270.558-180.378c-21.931 26.453-55.006 43.332-91.972 43.332-65.877 0-119.467-53.589-119.467-119.467 0-32.205 12.868-61.423 33.655-82.927l-92.399-215.586c-13.534 5.342-28.228 8.38-43.657 8.38-65.877 0-119.467-53.589-119.467-119.467s53.589-119.467 119.467-119.467c53.606 0 99.072 35.499 114.159 84.224l556.22-49.084c14.387-49.783 60.314-86.34 114.688-86.34 65.877 0 119.467 53.589 119.467 119.467s-53.589 119.467-119.467 119.467zM802.133 916.724c47.053 0 85.333-38.281 85.333-85.333s-38.281-85.333-85.333-85.333c-47.053 0-85.333 38.281-85.333 85.333s38.281 85.333 85.333 85.333zM119.467 746.057c-47.053 0-85.333 38.281-85.333 85.333s38.281 85.333 85.333 85.333c47.053 0 85.333-38.281 85.333-85.333s-38.281-85.333-85.333-85.333zM341.333 592.457c47.053 0 85.333-38.281 85.333-85.333s-38.281-85.333-85.333-85.333c-47.053 0-85.333 38.281-85.333 85.333s38.281 85.333 85.333 85.333zM119.467 12.19c-47.053 0-85.333 38.281-85.333 85.333s38.281 85.333 85.333 85.333c47.053 0 85.333-38.281 85.333-85.333s-38.281-85.333-85.333-85.333zM904.533-39.010c-47.053 0-85.333 38.281-85.333 85.333s38.281 85.333 85.333 85.333c47.053 0 85.333-38.281 85.333-85.333s-38.281-85.333-85.333-85.333z" />
<glyph unicode="&#xe91e;" glyph-name="chord" data-tags="oval" d="M1022.263 488.35h-34.347c-23.307 225.759-204.249 405.456-430.567 426.833v34.319c245.18-21.591 441.371-216.528 464.913-461.151zM1022.263 389.364c-23.542-244.623-219.734-439.561-464.913-461.151v34.319c226.318 21.377 407.259 201.073 430.567 426.833h34.347zM1.737 389.364h34.347c23.022-222.997 199.844-401.051 422.279-425.977v-34.377c-241.302 25.202-433.35 218.493-456.626 460.354zM1.737 488.35c23.276 241.861 215.325 435.152 456.626 460.354v-34.377c-222.435-24.926-399.257-202.98-422.279-425.977h-34.347z" />
<glyph unicode="&#xe91f;" glyph-name="request" data-tags="reception-bell" horiz-adv-x="1265" d="M146.071 288.269h972.798c14.15 0 25.601 10.584 25.601 23.665s-11.45 23.665-25.601 23.665h-26.827c-11.832 220.2-186.283 398.912-408.372 423.003v50.273h51.199c14.15 0 25.601 10.584 25.601 23.665v23.662c0 52.203-45.924 94.656-102.401 94.656h-51.199c-56.474 0-102.401-42.451-102.401-94.656v-23.665c0-13.080 11.45-23.665 25.601-23.665h51.199v-50.273c-222.086-24.093-396.54-202.803-408.369-423.003h-26.83c-14.15 0-25.601-10.584-25.601-23.665 0.002-13.080 11.453-23.662 25.601-23.662zM323.448 489.11c64.126 106.232 182.551 172.21 309.024 172.21 14.15 0 25.601-10.584 25.601-23.665s-11.45-23.662-25.601-23.662c-107.95 0-209.225-56.687-264.324-147.946-4.675-7.765-13.399-12.133-22.375-12.133-4.224 0-8.501 0.972-12.451 3.004-12.35 6.356-16.774 20.776-9.874 32.192zM1134.428 119.609v24.095c0 13.318-11.226 24.095-25.099 24.095h-953.723c-13.873 0-25.099-10.777-25.099-24.095v-24.095c-55.367 0-100.39-43.222-100.39-96.376v-72.281c0-13.318 11.226-24.095 25.099-24.095h1154.508c13.873 0 25.099 10.777 25.099 24.095v72.281c-0.002 53.154-45.026 96.376-100.395 96.376z" />
<glyph unicode="&#xe920;" glyph-name="hpa" data-tags="HPA" horiz-adv-x="1078" d="M70.493 35.699h316.814v53.85h-316.814v-53.85zM322.363 70.132h43.361v-15.041h-43.361v15.041zM217.825 490.313c0 9.616 7.82 17.421 17.421 17.421s17.421-7.82 17.421-17.421c0-9.591-7.82-17.411-17.421-17.411s-17.421 7.82-17.421 17.411zM330.894 490.313c0 9.616 7.813 17.421 17.411 17.421 9.616 0 17.421-7.82 17.421-17.421 0-9.591-7.823-17.411-17.421-17.411s-17.411 7.82-17.411 17.411zM70.493 177.271h316.814v53.877h-316.814v-53.877zM322.363 211.729h43.361v-15.041h-43.361v15.041zM0-53.243h453.058v635.993h-453.058v-635.993zM348.305 536.255c25.339 0 45.944-20.618 45.944-45.942 0-25.317-20.618-45.927-45.944-45.927-25.317 0-45.919 20.61-45.919 45.927-0.003 25.327 20.59 45.942 45.919 45.942zM235.246 536.255c25.337 0 45.934-20.618 45.934-45.942 0-25.317-20.595-45.927-45.934-45.927s-45.934 20.61-45.934 45.927c0 25.327 20.595 45.942 45.934 45.942zM41.973 403.199h373.854v-110.893h-373.854v110.893zM41.973 259.641h373.854v-110.876h-373.854v110.876zM41.973 118.057h373.854v-110.876h-373.854v110.876zM70.493 320.826h316.814v53.862h-316.814v-53.862zM322.363 357.262h43.361v-15.051h-43.361v15.051zM1076.547 471.314c0-27.883-2.548-55.198-7.17-81.802l-8.323-38.857c-53.59-204.83-240.213-356.446-461.609-356.446-28.12 0-55.65 2.596-82.458 7.29v284.227c12.6-5.257 22.703-14.29 34.055-23.224 16.669-13.157 42.053-2.381 61.53-3.039 48.83-1.628 57.216-54.305 60.6-92.416 2.486-27.973 28.323-51.044 21.208-80.289-3.189-13.097-10.006-26.262-20.963-34.398 77.616 13.688 147.972 48.393 205.028 98.088-19.767 49.443-76.723 79.662-71.709 144.741 11.667 110.851 139.474 63.338 211.46 101.085 4.379 24.384 6.76 49.431 6.76 75.040 0 159.306-88.055 298.359-217.987 371.286 2.116-1.978 4.307-3.934 6.212-5.857 83.816-83.801 38.674-90.246 51.574-186.971 0-32.227 66.622-26.865 60.175-84.901-12.877-58.031-15.041-114.97-73.074-66.604-58.011 48.355-96.688 9.656-116.035 16.113-25.814 12.89-38.707 70.921-70.948 70.921-90.238-6.447-32.242-186.978-141.842-135.4-2.148 1.118-4.051 2.411-6.067 3.626v191.050h-60.947c-2.113 73.117-7.848 148.009-71.201 193.956-76.285-44.741-137.118-112.709-173.539-193.956h-56.268c69.49 177.645 242.434 303.856 444.4 303.856 263.109-0.015 477.14-214.033 477.14-477.12z" />
<glyph unicode="&#xe921;" glyph-name="Trash-icon" data-tags="Trash icon" d="M512.003 950.857c-282.319 0-512.003-229.684-512.003-512.003s229.684-512.003 512.003-512.003 512.003 229.684 512.003 512.003-229.69 512.003-512.003 512.003zM512.003 14.624c-233.916 0-424.23 190.314-424.23 424.23s190.314 424.23 424.23 424.23 424.23-190.314 424.23-424.23-190.32-424.23-424.23-424.23zM710.116 636.944c-17.143 17.143-44.941 17.143-62.055 0l-136.058-136.076-136.058 136.076c-17.143 17.143-44.912 17.143-62.055 0s-17.143-44.912 0-62.055l136.058-136.070-136.064-136.076c-17.143-17.143-17.143-44.912 0-62.055 8.569-8.569 19.8-12.859 31.030-12.859s22.474 4.284 31.030 12.859l136.058 136.070 136.058-136.070c8.569-8.569 19.8-12.859 31.030-12.859s22.456 4.284 31.030 12.859c17.143 17.143 17.143 44.912 0 62.055l-136.064 136.070 136.058 136.070c17.143 17.143 17.143 44.918 0 62.061z" />
<glyph unicode="&#xe922;" glyph-name="Info-icon" data-tags="Info icon" d="M562.763 662.857c27.949 0 41.919-19.729 41.919-42.288 0-28.175-24.267-54.238-55.893-54.238-26.479 0-41.927 16.209-41.192 42.971 0 22.555 18.386 53.555 55.167 53.555zM476.701 230.857c-22.067 0-38.25 14.092-22.802 76.097l25.336 109.974c4.412 17.613 5.134 24.654 0 24.654-6.628 0-35.274-12.165-52.216-24.149l-11.019 19.030c53.689 47.2 115.459 74.883 141.93 74.883 22.059 0 25.745-27.48 14.713-69.759l-29.005-115.603c-5.151-20.429-2.934-27.471 2.2-27.471 6.62 0 28.328 8.48 49.653 26.097l12.509-17.621c-52.224-54.963-109.231-76.131-131.299-76.131z" />
<glyph unicode="&#xe923;" glyph-name="Deploy-icon" data-tags="Deploy icon" d="M329.235 423.297c34.055 48.177 54.086 79.215 68.691 102.153-56.127-4.879-109.926-73.517-109.926-73.517l37.047-36.408c1.075 2.692 2.448 5.307 4.188 7.773zM480.37 260.176l36.394-37.023c0 0 68.651 53.797 73.532 109.926-22.935-14.6-53.97-34.625-102.174-68.69-2.438-1.722-5.038-3.128-7.752-4.213zM418.372 280.764c-6.297-2.546-12.486-5.252-18.939-7.409-17.234-5.763-34.984-9.657-52.98-12.142-7.543-1.041-15.157-1.925-22.783-2.503 0.073 0.942 0.142 1.885 0.222 2.825 1.574 18.345 4.363 36.594 8.871 54.458 2.172 8.621 4.943 17.001 7.918 25.37 1.85 5.203 4.158 10.183 6.487 15.162l-4.036 4.035c-8.976-6.032-16.783-13.655-23.408-22.279-9.808-12.77-17.159-27.237-22.298-42.481-5.521-16.369-8.814-33.705-9.326-50.987-0.073-2.428-0.239-4.908 0.137-7.317 0.484-3.112 1.85-6.057 3.902-8.443 2.031-2.361 4.704-4.143 7.666-5.099 2.486-0.802 4.987-0.816 7.566-0.796 15.682 0.131 31.608 2.857 46.619 7.319 27.455 8.161 55.172 23.514 71.418 47.774l-3.928 3.927c-1.030-0.484-2.062-0.959-3.107-1.413zM723.247 658.396c0 0-0.003 0.001-0.006 0.004-2.858 2.857-6.732 4.457-10.764 4.457-0.1 0-0.201-0.001-0.301-0.003-49.024-0.962-169.978-10.131-234.213-74.37-29.16-29.16-38.637-44.34-59.409-77.605-14.959-23.95-35.44-56.755-72.87-110.63-4.204-6.055-3.473-14.252 1.74-19.462l98.203-98.207c2.946-2.948 6.849-4.464 10.777-4.464 3.019 0 6.052 0.895 8.685 2.723 53.894 37.44 86.685 57.916 110.626 72.87 33.261 20.771 48.443 30.252 77.608 59.415 64.349 64.353 73.454 185.23 74.377 234.215 0.081 4.136-1.529 8.128-4.454 11.057zM609.531 473.097c-19.771-19.77-51.821-19.77-71.592 0-19.774 19.771-19.771 51.821 0.003 71.591 19.768 19.771 51.818 19.774 71.589 0.004 19.765-19.77 19.768-51.827 0-71.595z" />
<glyph unicode="&#xe924;" glyph-name="Cancel-icon" data-tags="Cancel icon" d="M274.1 385.571c-10.085 0-18.1 24.164-18.1 53.667s8.016 52.952 18.1 52.952h475.539c10.085 0 18.361-23.45 18.361-52.952s-8.276-53.715-18.361-53.715l-475.539 0.048z" />
<glyph unicode="&#xe925;" glyph-name="Arrow-up-icon" data-tags="Arrow-up icon" horiz-adv-x="2048" d="M20.955-53.356c28.227-26.383 74.096-26.383 102.323 0l899.733 842.615 901.497-842.615c28.227-26.383 74.096-26.383 102.323 0s28.227 69.256 0 95.639l-950.894 888.786c-14.113 13.192-31.755 19.787-51.161 19.787-17.642 0-37.048-6.596-51.161-19.787l-950.894-888.786c-29.991-26.383-29.991-69.256-1.764-95.639z" />
<glyph unicode="&#xe926;" glyph-name="Down-arrow-icon" data-tags="Down-arrow icon" horiz-adv-x="2048" d="M2027.045 931.070c-28.227 26.383-74.096 26.383-102.323 0l-899.733-842.615-901.497 842.615c-28.227 26.383-74.096 26.383-102.323 0s-28.227-69.256 0-95.639l950.894-888.786c14.113-13.192 31.755-19.787 51.161-19.787 17.642 0 37.048 6.596 51.161 19.787l950.894 888.786c29.991 26.383 29.991 69.256 1.764 95.639z" />
<glyph unicode="&#xe927;" glyph-name="Inactive-deploy-icon" data-tags="Inactive deploy icon" d="M329.235 423.297c34.055 48.177 54.086 79.215 68.691 102.153-56.127-4.879-109.926-73.517-109.926-73.517l37.047-36.408c1.075 2.692 2.448 5.307 4.188 7.773zM480.37 260.176l36.394-37.023c0 0 68.651 53.797 73.532 109.926-22.935-14.6-53.97-34.625-102.174-68.69-2.438-1.722-5.038-3.128-7.752-4.213zM418.372 280.764c-6.297-2.546-12.486-5.252-18.939-7.409-17.234-5.763-34.984-9.657-52.98-12.142-7.543-1.041-15.157-1.925-22.783-2.503 0.073 0.942 0.142 1.885 0.222 2.825 1.574 18.345 4.363 36.594 8.871 54.458 2.172 8.621 4.943 17.001 7.918 25.37 1.85 5.203 4.158 10.183 6.487 15.162l-4.036 4.035c-8.976-6.032-16.783-13.655-23.408-22.279-9.808-12.77-17.159-27.237-22.298-42.481-5.521-16.369-8.814-33.705-9.326-50.987-0.073-2.428-0.239-4.908 0.137-7.317 0.484-3.112 1.85-6.057 3.902-8.443 2.031-2.361 4.704-4.143 7.666-5.099 2.486-0.802 4.987-0.816 7.566-0.796 15.682 0.131 31.608 2.857 46.619 7.319 27.455 8.161 55.172 23.514 71.418 47.774l-3.928 3.927c-1.030-0.484-2.062-0.959-3.107-1.413zM723.247 658.396c0 0-0.003 0.001-0.006 0.004-2.858 2.857-6.732 4.457-10.764 4.457-0.1 0-0.201-0.001-0.301-0.003-49.024-0.962-169.978-10.131-234.213-74.37-29.16-29.16-38.637-44.34-59.409-77.605-14.959-23.95-35.44-56.755-72.87-110.63-4.204-6.055-3.473-14.252 1.74-19.462l98.203-98.207c2.946-2.948 6.849-4.464 10.777-4.464 3.019 0 6.052 0.895 8.685 2.723 53.894 37.44 86.685 57.916 110.626 72.87 33.261 20.771 48.443 30.252 77.608 59.415 64.349 64.353 73.454 185.23 74.377 234.215 0.081 4.136-1.529 8.128-4.454 11.057zM609.531 473.097c-19.771-19.77-51.821-19.77-71.592 0-19.774 19.771-19.771 51.821 0.003 71.591 19.768 19.771 51.818 19.774 71.589 0.004 19.765-19.77 19.768-51.827 0-71.595z" />
<glyph unicode="&#xe928;" glyph-name="Calendar-icon" data-tags="Calendar icon" d="M372.364 375.366c0 9.361-7.592 16.946-16.959 16.946h-59.182c-9.357 0-16.95-7.584-16.95-16.946v-59.185c0-9.374 7.593-16.961 16.95-16.961h59.182c9.367 0 16.959 7.587 16.959 16.961v59.185zM558.545 375.366c0 9.361-7.594 16.946-16.944 16.946h-59.195c-9.358 0-16.952-7.584-16.952-16.946v-59.185c0-9.374 7.594-16.961 16.952-16.961h59.195c9.35 0 16.944 7.587 16.944 16.961v59.185zM744.727 375.366c0 9.361-7.593 16.946-16.95 16.946h-59.182c-9.367 0-16.959-7.584-16.959-16.946v-59.185c0-9.374 7.592-16.961 16.959-16.961h59.182c9.357 0 16.95 7.587 16.95 16.961v59.185zM372.364 189.173c0 9.378-7.592 16.956-16.959 16.956h-59.182c-9.357 0-16.95-7.579-16.95-16.956v-59.18c0-9.368 7.593-16.955 16.95-16.955h59.182c9.367 0 16.959 7.588 16.959 16.955v59.18zM558.545 189.173c0 9.378-7.594 16.956-16.944 16.956h-59.195c-9.358 0-16.952-7.579-16.952-16.956v-59.18c0-9.368 7.594-16.955 16.952-16.955h59.195c9.35 0 16.944 7.588 16.944 16.955v59.18zM744.727 189.173c0 9.378-7.593 16.956-16.942 16.956h-59.189c-9.367 0-16.959-7.579-16.959-16.956v-59.18c0-9.368 7.592-16.955 16.959-16.955h59.189c9.349 0 16.942 7.588 16.942 16.955v59.18zM932.854 857.311v-126.656c0-57.247-46.449-103.38-103.698-103.38h-65.416c-57.253 0-104.318 46.132-104.318 103.38v127.111h-294.845v-127.111c0-57.247-47.063-103.38-104.307-103.38h-65.428c-57.246 0-103.694 46.132-103.694 103.38v126.656c-50.034-1.508-91.148-42.902-91.148-93.781v-742.265c0-51.836 42.021-94.408 93.866-94.408h836.268c51.767 0 93.866 42.66 93.866 94.408v742.265c0 50.879-41.112 92.273-91.146 93.781zM902.471 67.487c0-22.401-18.166-40.575-40.58-40.575h-701.569c-22.414 0-40.58 18.174-40.58 40.575v383.407c0 22.41 18.164 40.584 40.58 40.584h701.566c22.414 0 40.58-18.174 40.58-40.584l0.002-383.407zM210.555 671.584h44.345c13.46 0 24.373 15.93 24.373 35.605v208.050c0 19.678-10.913 35.618-24.373 35.618h-44.345c-13.461 0-24.373-15.94-24.373-35.618v-208.050c0-19.676 10.912-35.605 24.373-35.605zM769.102 671.584h44.349c13.452 0 24.367 15.93 24.367 35.605v208.050c0.001 19.678-10.913 35.618-24.367 35.618h-44.349c-13.46 0-24.374-15.94-24.374-35.618v-208.050c0-19.676 10.915-35.605 24.374-35.605z" />
<glyph unicode="&#xe929;" glyph-name="M-icon" data-tags="M icon" horiz-adv-x="956" d="M477.867-39.010c263.197 0 477.867 213.847 477.867 477.867s-214.67 477.867-477.867 477.867c-263.197 0-477.867-214.67-477.867-477.867s214.67-477.867 477.867-477.867zM477.867 849.279c226.185 0 410.422-184.238 410.422-410.422s-184.238-410.422-410.422-410.422c-226.185 0-410.422 184.238-410.422 410.422s184.238 410.422 410.422 410.422zM375.054 636.724l112.2-316.8 111.6 316.8h118.2v-436.8h-90.3v119.4l9 206.1-117.9-325.5h-61.8l-117.6 325.2 9-205.8v-119.4h-90v436.8h117.6z" />
<glyph unicode="&#xe92a;" glyph-name="download" data-tags="export" horiz-adv-x="878" d="M170.928 220.819h143.141v84.919h-143.141c-42.569 0-75.63 21.797-75.63 40.448v376.686c0 18.725 33.061 40.448 75.63 40.448h541.111c42.569 0 75.557-21.723 75.557-40.448v-376.686c0-18.651-32.987-40.448-75.557-40.448h-143.141v-84.846h143.141c89.966 0 160.549 55.003 160.549 125.367v376.686c0 70.217-70.51 125.367-160.549 125.367h-541.111c-89.966 0-160.549-55.077-160.549-125.44v-376.686c0-70.217 70.51-125.367 160.549-125.367zM567.143 175.177c-0.004 0-0.008 0-0.012 0-11.71 0-22.309-4.752-29.975-12.434l-53.176-53.249v432.128c0 23.47-19.026 42.496-42.496 42.496s-42.496-19.026-42.496-42.496v0-434.907l-56.027 55.954c-7.668 7.689-18.273 12.447-29.989 12.447s-22.321-4.757-29.988-12.446l-0.001-0.001c-7.672-7.676-12.416-18.278-12.416-29.989s4.745-22.312 12.417-29.989l126.683-126.83c7.656-7.681 18.246-12.434 29.946-12.434 0.015 0 0.030 0 0.045 0h0.729c0.013 0 0.028 0 0.043 0 11.7 0 22.29 4.753 29.945 12.433l126.831 126.758c7.759 7.69 12.564 18.352 12.564 30.135 0 23.429-18.993 42.423-42.423 42.423-0.045 0-0.091 0-0.136 0h0.007z" />
<glyph unicode="&#xe92b;" glyph-name="export" data-tags="export" horiz-adv-x="878" d="M707.072 656.895h-143.141v-84.919h143.141c42.569 0 75.63-21.797 75.63-40.448v-376.686c0-18.725-33.061-40.448-75.63-40.448h-541.111c-42.569 0-75.557 21.723-75.557 40.448v376.686c0 18.651 32.987 40.448 75.557 40.448h143.141v84.846h-143.141c-89.966 0-160.549-55.003-160.549-125.367v-376.686c0-70.217 70.51-125.367 160.549-125.367h541.111c89.966 0 160.549 55.077 160.549 125.44v376.686c0 70.217-70.51 125.367-160.549 125.367zM310.857 702.537c0.004 0 0.008 0 0.012 0 11.71 0 22.309 4.752 29.975 12.434l53.176 53.249v-432.128c0-23.47 19.026-42.496 42.496-42.496s42.496 19.026 42.496 42.496v0 434.907l56.027-55.954c7.668-7.689 18.273-12.447 29.989-12.447s22.321 4.757 29.988 12.446l0.001 0.001c7.672 7.676 12.416 18.278 12.416 29.989s-4.745 22.312-12.417 29.989l-126.683 126.83c-7.656 7.681-18.246 12.434-29.946 12.434-0.015 0-0.030 0-0.045 0h-0.729c-0.013 0-0.028 0-0.043 0-11.7 0-22.29-4.753-29.945-12.433l-126.831-126.758c-7.759-7.69-12.564-18.352-12.564-30.135 0-23.429 18.993-42.423 42.423-42.423 0.045 0 0.091 0 0.136 0h-0.007z" />
<glyph unicode="&#xe92c;" glyph-name="edit" data-tags="edit-icon" d="M649.732 619.294l-208.011-360.287-83.13 47.995 207.973 360.309 83.168-48.017zM614.593 750.433l-32.031-55.412 83.168-48.017 31.989 55.45-83.125 47.979zM350.693 274.605l-32.576-133.674 99.492 95.051-66.916 38.623z" />
<glyph unicode="&#xe92d;" glyph-name="add" data-tags="add" d="M512 950.857c-282.785 0-512-229.215-512-512s229.215-512 512-512c282.785 0 512 229.249 512 512s-229.215 512-512 512zM512-9.143c-247.425 0-448 200.575-448 448s200.575 448 448 448c247.425 0 448-200.575 448-448s-200.575-448-448-448zM704 470.857h-160v160c0 17.664-14.336 32-32 32s-32-14.336-32-32v-160h-160c-17.664 0-32-14.336-32-32s14.336-32 32-32h160v-160c0-17.664 14.336-32 32-32s32 14.336 32 32v160h160c17.664 0 32 14.336 32 32s-14.336 32-32 32z" />
<glyph unicode="&#xe92e;" glyph-name="remove" data-tags="remove" d="M512 950.857c-282.785 0-512-229.215-512-512s229.215-512 512-512c282.785 0 512 229.249 512 512s-229.215 512-512 512zM512-9.143c-247.425 0-448 200.575-448 448s200.575 448 448 448c247.425 0 448-200.575 448-448s-200.575-448-448-448zM704 470.857h-384c-17.664 0-32-14.336-32-32s14.336-32 32-32h384c17.664 0 32 14.336 32 32s-14.336 32-32 32z" />
<glyph unicode="&#xe92f;" glyph-name="close2" data-tags="close" d="M999.118 938.818c-15.95 16.051-41.81 16.051-57.76 0l-929.395-935.294c-15.95-16.051-15.95-42.075 0-58.127 7.974-8.029 18.429-12.039 28.881-12.039s20.905 4.012 28.881 12.041l929.393 935.294c15.948 16.049 15.948 42.073 0 58.125zM999.117 3.524l-929.397 935.294c-15.948 16.051-41.81 16.051-57.758 0-15.95-16.049-15.95-42.073 0-58.125l929.397-935.296c7.974-8.027 18.429-12.039 28.881-12.039s20.907 4.012 28.879 12.037c15.946 16.053 15.946 42.077-0.002 58.129z" />
<glyph unicode="&#xe930;" glyph-name="ip" data-tags="ip" horiz-adv-x="878" d="M281.649 729.844h75.532v-332.898h-75.532v332.898zM524.239 732.331c-45.934 0-78.507-2.974-101.766-6.973v-328.411h74.606v119.028c6.973-0.975 15.799-1.512 25.698-1.512 44.422 0 82.456 10.923 108.154 35.157 19.749 18.822 30.622 46.421 30.622 79.043 0 32.573-14.385 60.172-35.547 76.995-22.235 17.798-55.394 26.673-101.766 26.673zM522.191 572.343c-10.825 0-18.773 0.488-25.161 1.999v98.206c5.413 1.463 15.799 2.974 31.159 2.974 37.498 0 58.758-18.286 58.758-48.859 0-34.085-24.722-54.321-64.756-54.321zM444.562 960c-224.012 0-405.553-181.541-405.553-405.504s405.553-581.144 405.553-581.144c0 0 405.553 357.132 405.553 581.096s-181.541 405.553-405.553 405.553zM445.586 307.907c-148.724 0-269.263 120.588-269.263 269.361 0 148.724 120.588 269.263 269.263 269.263 148.773 0 269.263-120.588 269.263-269.263 0-148.724-120.539-269.361-269.263-269.361z" />
<glyph unicode="&#xe931;" glyph-name="refresh" data-tags="refresh" horiz-adv-x="768" d="M2.426 442.722c-5.811 50.269-0.968 98.797 12.202 143.652 43.773 149.066 181.098 258.69 343.989 260.624v97.444c0 5.414 6.779 8.314 11.234 5.027l200.854-147.326c3.293-2.513 3.293-7.54 0-9.86l-200.66-147.326c-4.649-3.287-11.234-0.387-11.234 5.027v97.25c-107.109-1.74-198.53-67.669-237.848-160.86-14.914-35.188-22.468-74.050-20.337-114.844 2.905-56.069 24.017-107.691 57.332-149.453 17.819-22.234 13.558-54.715-9.491-71.536-21.887-16.047-52.489-11.6-69.34 9.667-41.255 51.429-68.759 114.071-76.7 182.514zM582.327 629.876c33.508-41.568 54.62-93.384 57.332-149.453 2.131-40.988-5.617-79.85-20.337-114.844-39.319-93.19-130.739-159.313-237.848-160.86v97.25c0 5.414-6.779 8.314-11.234 5.027l-200.854-147.326c-3.293-2.513-3.293-7.54 0-9.86l200.66-147.326c4.649-3.287 11.234-0.387 11.234 5.027v97.444c162.891 1.74 300.41 111.364 343.989 260.624 13.171 44.855 17.819 93.384 12.202 143.652-7.748 68.443-35.251 131.085-76.507 182.514-17.045 21.267-47.453 25.714-69.34 9.667-22.855-16.821-27.116-49.302-9.297-71.536z" />
<glyph unicode="&#xe932;" glyph-name="restart" data-tags="icon (5)" d="M874.108 823.491c-57.512 57.439-125.152 98.313-197.276 122.764v-154.45c34.724-17.29 67.64-39.788 96.504-68.725 144.177-144.25 144.177-378.782 0-522.96-144.177-143.96-378.565-143.96-522.96 0-144.033 144.322-144.033 378.71 0 522.96 0.362 0.434 1.519 1.157 2.026 1.809h0.145l85.436-85.291-0.506 270.848-270.703 0.362 85.074-85.074c-0.506-0.868-1.302-1.736-1.953-2.243-199.881-199.808-199.881-523.973 0-723.781 200.17-200.025 524.117-200.025 724.215 0 199.736 199.808 199.953 523.973 0 723.781z" />
<glyph unicode="&#xe933;" glyph-name="retrain" data-tags="retrain" horiz-adv-x="896" d="M265.235 423.297c34.055 48.177 54.086 79.215 68.691 102.153-56.127-4.879-109.926-73.517-109.926-73.517l37.047-36.408c1.075 2.692 2.448 5.307 4.188 7.773zM416.37 260.176l36.394-37.023c0 0 68.651 53.797 73.532 109.926-22.935-14.6-53.97-34.625-102.174-68.69-2.438-1.722-5.038-3.128-7.752-4.213zM354.372 280.764c-6.297-2.546-12.486-5.252-18.939-7.409-17.234-5.763-34.984-9.657-52.98-12.142-7.543-1.041-15.157-1.925-22.783-2.503 0.073 0.942 0.142 1.885 0.222 2.825 1.574 18.345 4.363 36.594 8.871 54.458 2.172 8.621 4.943 17.001 7.918 25.37 1.85 5.203 4.158 10.183 6.487 15.162l-4.036 4.035c-8.976-6.032-16.783-13.655-23.408-22.279-9.808-12.77-17.159-27.237-22.298-42.481-5.521-16.369-8.814-33.705-9.326-50.987-0.073-2.428-0.239-4.908 0.137-7.317 0.484-3.112 1.85-6.057 3.902-8.443 2.031-2.361 4.704-4.143 7.666-5.099 2.486-0.802 4.987-0.816 7.566-0.796 15.682 0.131 31.608 2.857 46.619 7.319 27.455 8.161 55.172 23.514 71.418 47.774l-3.928 3.927c-1.030-0.484-2.062-0.959-3.107-1.413zM659.247 658.396c0 0-0.003 0.001-0.006 0.004-2.858 2.857-6.732 4.457-10.764 4.457-0.1 0-0.201-0.001-0.301-0.003-49.024-0.962-169.978-10.131-234.213-74.37-29.16-29.16-38.637-44.34-59.409-77.605-14.959-23.95-35.44-56.755-72.87-110.63-4.204-6.055-3.473-14.252 1.74-19.462l98.203-98.207c2.946-2.948 6.849-4.464 10.777-4.464 3.019 0 6.052 0.895 8.685 2.723 53.894 37.44 86.685 57.916 110.626 72.87 33.261 20.771 48.443 30.252 77.608 59.415 64.349 64.353 73.454 185.23 74.377 234.215 0.081 4.136-1.529 8.128-4.454 11.057zM545.531 473.097c-19.771-19.77-51.821-19.77-71.592 0-19.774 19.771-19.771 51.821 0.003 71.591 19.768 19.771 51.818 19.774 71.589 0.004 19.765-19.77 19.768-51.827 0-71.595zM164.549 767.166c130.486 123.708 325.764 125.599 458.055 12.673l-104.858-4.161c-13.536-0.567-24.004-12.295-23.462-26.482 0.541-13.808 11.37-24.59 24.365-24.59 0.361 0 0.541 0 0.902 0l160.987 6.242c13.175 0.567 23.462 11.728 23.462 25.536v1.892c0 0.378 0 0.567 0 0.946v0.189l-5.956 166.835c-0.541 14.187-11.912 25.158-25.267 24.59-13.536-0.567-24.004-12.295-23.462-26.482l3.79-104.603c-65.514 56.179-146.188 88.714-232.457 93.254-106.843 5.675-209.536-32.724-288.766-108.008-109.009-103.468-155.212-260.846-120.56-410.657 2.707-11.728 12.634-19.483 23.643-19.483 1.985 0 3.79 0.189 5.775 0.757 12.994 3.405 21.116 17.213 17.867 30.832-30.32 131.652 10.107 269.925 105.941 360.72zM883.691 483.379c-3.532 13.62-17.854 22.132-31.981 18.727s-22.956-17.214-19.424-30.834c33.158-131.658-10.987-269.938-115.17-360.737-73.183-63.748-165.006-95.15-256.436-95.15-87.31 0-174.423 28.564-244.664 84.935l115.367 10.026c14.519 1.324 25.31 13.62 23.937 27.807s-14.127 24.402-28.842 23.078l-174.423-15.133c-14.519-1.324-25.31-13.62-23.937-27.807l15.696-168.167c1.177-13.242 12.753-23.267 26.291-23.267 0.785 0 1.57 0 2.354 0.189 14.519 1.324 25.31 13.62 23.937 27.807l-9.418 102.338c71.221-55.614 158.531-87.961 251.727-92.501 7.456-0.378 14.911-0.567 22.171-0.567 108.107 0 210.917 38.211 291.752 108.58 118.506 103.473 168.734 260.669 131.063 410.676z" />
<glyph unicode="&#xe934;" glyph-name="information" data-tags="information" d="M512 960c-282.317 0-512-229.686-512-512.003s229.683-511.997 512-511.997c282.317 0 512 229.68 512 511.997s-229.683 512.003-512 512.003zM512 29.091c-230.99 0-418.909 187.92-418.909 418.906s187.92 418.912 418.909 418.912c230.99 0 418.909-187.926 418.909-418.912s-187.923-418.906-418.909-418.906zM511.994 742.788c-34.214 0-62.048-27.853-62.048-62.089 0-34.205 27.834-62.033 62.048-62.033s62.048 27.828 62.048 62.033c0 34.236-27.834 62.089-62.048 62.089zM512 525.576c-25.706 0-46.545-20.84-46.545-46.545v-279.273c0-25.706 20.84-46.545 46.545-46.545s46.545 20.84 46.545 46.545v279.273c0 25.706-20.84 46.545-46.545 46.545z" />
<glyph unicode="&#xe935;" glyph-name="expand-square" data-tags="expand-square" d="M704 832h-576v-576l64 64v448h448zM320 64h576v576l-64-64v-448h-448zM1024 960h-332.48l119.68-119.68-299.2-299.2 93.12-93.12 299.2 299.2 119.68-119.68zM512 354.88l-93.12 93.12-299.2-299.2-119.68 119.68v-332.48h332.48l-119.68 119.68z" />
<glyph unicode="&#xe936;" glyph-name="full-size" data-tags="full-size" d="M35.663 650.503c19.7 0 35.663 15.967 35.663 35.663v152.057l229.693-229.645c6.966-6.961 16.091-10.442 25.216-10.442 9.13 0 18.259 3.481 25.221 10.447 13.928 13.928 13.928 36.509-0.005 50.432l-229.702 229.65h152.090c19.695 0 35.663 15.967 35.663 35.663s-15.963 35.663-35.663 35.663h-238.176c-19.7 0-35.663-15.967-35.663-35.663v-238.166c0-19.691 15.963-35.658 35.663-35.658zM988.337 245.497c-19.7 0-35.663-15.967-35.663-35.663v-152.062l-236.763 236.763c-13.932 13.928-36.509 13.928-50.437 0s-13.928-36.509 0-50.432l236.759-236.759h-152.052c-19.7 0-35.663-15.967-35.663-35.663s15.963-35.663 35.663-35.663h238.161c19.7 0 35.663 15.967 35.663 35.663v238.152c-0.005 19.695-15.972 35.663-35.668 35.663zM308.089 294.536l-236.74-236.759v152.057c0 19.695-15.963 35.663-35.663 35.663s-35.663-15.967-35.663-35.663v-238.161c0-19.695 15.963-35.663 35.663-35.663h238.152c19.695 0 35.663 15.967 35.663 35.663s-15.963 35.663-35.663 35.663h-152.057l236.744 236.768c13.928 13.928 13.928 36.509-0.005 50.437-13.918 13.923-36.5 13.923-50.432-0.005zM988.337 959.99h-238.161c-19.7 0-35.663-15.967-35.663-35.663s15.963-35.663 35.663-35.663h152.062l-229.659-229.674c-13.928-13.928-13.928-36.509 0.005-50.437 6.961-6.961 16.091-10.442 25.216-10.442s18.255 3.485 25.221 10.447l229.659 229.674v-152.066c0-19.695 15.963-35.663 35.663-35.663s35.663 15.967 35.663 35.663v238.161c-0.005 19.7-15.972 35.663-35.668 35.663z" />
<glyph unicode="&#xe937;" glyph-name="tab" data-tags="tab" d="M950.842 960h-877.682c-40.341 0-73.158-32.819-73.158-73.16v-877.68c0-40.341 32.819-73.16 73.16-73.16h877.678c40.341 0 73.16 32.819 73.16 73.16v877.68c0.002 40.341-32.817 73.16-73.158 73.16zM66.785 886.84c0 3.517 2.861 6.378 6.378 6.378h877.678c3.517 0 6.378-2.861 6.378-6.378v-184.459h-890.433v184.459zM957.22 9.16c0-3.517-2.861-6.378-6.378-6.378h-877.682c-3.517 0-6.378 2.861-6.378 6.378v626.44h890.435v-626.44zM229.506 798.912c0-32.271-26.161-58.432-58.432-58.432s-58.432 26.161-58.432 58.432c0 32.271 26.161 58.432 58.432 58.432s58.432-26.161 58.432-58.432zM376.933 285.799h104.868v-104.868c0-18.441 14.95-33.391 33.391-33.391s33.391 14.95 33.391 33.391v104.868h104.868c18.441 0 33.391 14.95 33.391 33.391s-14.95 33.391-33.391 33.391h-104.868v104.868c0 18.441-14.95 33.391-33.391 33.391s-33.391-14.95-33.391-33.391v-104.868h-104.868c-18.441 0-33.391-14.95-33.391-33.391s14.95-33.391 33.391-33.391z" />
<glyph unicode="&#xe938;" glyph-name="trash-outline-icon" data-tags="trash-outline-icon" d="M782.025 675.895h-134.746v21.711c0 38.816-31.956 70.395-71.234 70.395h-128.089c-39.279 0-71.234-31.579-71.234-70.395v-21.711h-134.746c-9.986 0-17.975-7.895-17.975-17.763s7.989-17.763 17.975-17.763h32.488v-417.368c0-52.368 43.14-95 96.133-95h282.807c52.993 0 96.133 42.632 96.133 95v417.368h32.488c9.986 0 17.975 7.895 17.975 17.763s-7.989 17.763-17.975 17.763zM412.671 697.605c0 19.211 15.845 34.868 35.284 34.868h128.089c19.44 0 35.284-15.658 35.284-34.868v-21.711h-198.657v21.711zM713.587 223c0-32.763-27.029-59.474-60.183-59.474h-282.807c-33.154 0-60.183 26.711-60.183 59.474v417.368h403.307v-417.368h-0.133zM400 256c8.889 0 16 8.139 16 18.313v283.374c0 10.174-7.111 18.313-16 18.313s-16-8.139-16-18.313v-283.374c0-10.174 7.23-18.313 16-18.313zM528 256c8.889 0 16 7.229 16 16.265v287.47c0 9.036-7.111 16.265-16 16.265s-16-7.229-16-16.265v-287.349c0-9.036 7.111-16.386 16-16.386zM656 256c8.889 0 16 8.139 16 18.313v283.374c0 10.174-7.111 18.313-16 18.313s-16-8.139-16-18.313v-283.374c0-10.174 7.111-18.313 16-18.313z" />
<glyph unicode="&#xe939;" glyph-name="group-3" data-tags="group-3" horiz-adv-x="1479" d="M54.955 488.96l454.77 454.77c10.049 10.053 23.933 16.271 39.269 16.271 0.074 0 0.149 0 0.223 0h-0.011c15.019 0 29.013-5.803 39.595-16.27l33.451-33.564c10.103-10.126 16.351-24.102 16.351-39.538s-6.247-29.412-16.352-39.539l-381.837-381.837 382.293-382.293c10.214-10.075 16.541-24.067 16.541-39.538s-6.327-29.463-16.535-39.532l-0.006-0.006-33.564-33.451c-10.060-10.12-23.99-16.384-39.382-16.384-0.035 0-0.069 0-0.104 0h0.005c-0.029 0-0.064 0-0.099 0-15.393 0-29.323 6.264-39.38 16.381l-455.228 455.114c-10.053 10.049-16.272 23.933-16.272 39.271 0 0.154 0.001 0.308 0.002 0.461v-0.024c0 15.019 5.689 29.127 16.27 39.708zM438.955 488.96l454.77 454.77c10.049 10.053 23.933 16.271 39.269 16.271 0.074 0 0.149 0 0.223 0h-0.011c15.019 0 29.013-5.803 39.595-16.27l33.451-33.564c10.103-10.126 16.351-24.102 16.351-39.538s-6.247-29.412-16.352-39.539l-381.837-381.837 382.293-382.293c10.214-10.075 16.541-24.067 16.541-39.538s-6.327-29.463-16.535-39.532l-0.006-0.006-33.564-33.451c-10.060-10.12-23.99-16.384-39.382-16.384-0.035 0-0.069 0-0.104 0h0.005c-0.029 0-0.064 0-0.099 0-15.393 0-29.323 6.264-39.38 16.381l-455.228 455.114c-10.053 10.049-16.272 23.933-16.272 39.271 0 0.154 0.001 0.308 0.002 0.461v-0.024c0 15.019 5.689 29.127 16.27 39.708zM822.955 488.96l454.77 454.77c10.049 10.053 23.933 16.271 39.269 16.271 0.074 0 0.149 0 0.223 0h-0.011c15.019 0 29.013-5.803 39.595-16.27l33.451-33.564c10.103-10.126 16.351-24.102 16.351-39.538s-6.247-29.412-16.352-39.539l-381.837-381.837 382.293-382.293c10.214-10.075 16.541-24.067 16.541-39.538s-6.327-29.463-16.535-39.532l-0.006-0.006-33.564-33.451c-10.060-10.12-23.99-16.384-39.382-16.384-0.035 0-0.069 0-0.104 0h0.005c-0.029 0-0.064 0-0.099 0-15.393 0-29.323 6.264-39.38 16.381l-455.228 455.114c-10.053 10.049-16.272 23.933-16.272 39.271 0 0.154 0.001 0.308 0.002 0.461v-0.024c0 15.019 5.689 29.127 16.27 39.708z" />
<glyph unicode="&#xe93a;" glyph-name="mean" data-tags="mean" horiz-adv-x="159" d="M91.022 84.72l69.075-69.075-80.453-80.453-80.453 80.453 69.075 69.075v726.561l-69.075 69.075 80.453 80.453 80.453-80.453-69.075-69.075v-726.561z" />
<glyph unicode="&#xe93b;" glyph-name="actual" data-tags="actual" horiz-adv-x="384" d="M174.080 934.414h25.6v-76.8h-25.6v76.8zM174.080 832.014h25.6v-76.8h-25.6v76.8zM174.080 729.614h25.6v-76.8h-25.6v76.8zM174.080 627.214h25.6v-76.8h-25.6v76.8zM174.080 524.814h25.6v-76.8h-25.6v76.8zM174.080 422.414h25.6v-76.8h-25.6v76.8zM174.080 320.014h25.6v-76.8h-25.6v76.8zM174.080 217.614h25.6v-76.8h-25.6v76.8zM174.080 115.214h25.6v-76.8h-25.6v76.8zM174.080-38.4h-71.68v25.6h71.68v25.614h25.6v-52.156h-25.6v0.942zM0 934.4v25.6h76.8v-25.6h-76.8zM102.4 934.4v25.6h76.8v-25.6h-76.8zM204.8 934.4v25.6h76.8v-25.6h-76.8zM307.2 934.4v25.6h76.8v-25.6h-76.8zM0-38.4v25.6h76.8v-25.6h-76.8zM204.8-38.4v25.6h76.8v-25.6h-76.8zM307.2-38.4v25.6h76.8v-25.6h-76.8z" />
<glyph unicode="&#xe93c;" glyph-name="mute" data-tags="mute" d="M874.057 810.13c-199.68 199.68-524.434 199.68-724.114 0-92.623-92.14-149.945-219.689-149.945-360.626 0-0.503 0.001-1.006 0.002-1.509v0.078c0-136.777 53.248-265.289 149.943-362.057 92.36-92.415 219.984-149.578 360.959-149.578 0.386 0 0.772 0 1.158 0.001h-0.060c0.274-0.001 0.598-0.001 0.922-0.001 141.057 0 268.749 57.222 361.13 149.719l0.005 0.005c92.524 92.72 149.738 220.707 149.738 362.057s-57.214 269.337-149.747 362.066l0.009-0.009zM174.080 785.993c86.236 86.313 205.411 139.704 337.057 139.704 0.303 0 0.607 0 0.91-0.001h-0.047c117.029 0 234.057-42.715 325.486-127.927l-120.686-120.686v110.519c0.001 0.107 0.001 0.234 0.001 0.36 0 19.49-10.647 36.493-26.441 45.511l-0.257 0.135c-7.533 4.444-16.599 7.070-26.277 7.070-9.932 0-19.218-2.765-27.13-7.566l0.233 0.131c-1.106-0.658-2.065-1.384-2.934-2.202l0.008 0.008-226.011-210.432c-2.366-1.154-5.148-1.829-8.088-1.829-0.037 0-0.073 0-0.11 0h-142.037c-29.257 0-52.955-23.771-52.955-52.955v-218.331c0-29.257 23.771-53.029 52.955-53.029h76.507l-171.886-171.886c-79.471 84.629-128.293 198.852-128.293 324.477 0 0.329 0 0.657 0.001 0.986v-0.051c0 127.707 49.737 247.662 139.922 337.92zM368.421 328.631h-110.665c-10.391 0.042-18.798 8.474-18.798 18.871 0 0 0 0 0 0v0 218.258c0 10.386 8.411 18.871 18.798 18.871h142.117c9.873 0.012 19.11 2.729 27.012 7.448l-0.242-0.134c1.137 0.648 2.121 1.375 3.008 2.203l-0.009-0.009 226.011 210.432c2.383 1.192 5.192 1.89 8.164 1.89 3.461 0 6.702-0.947 9.476-2.595l-0.086 0.047c2.853-1.609 9.509-6.51 9.509-16.311v-144.75l-314.368-314.222zM682.642 594.651v-468.992c0-9.801-6.583-14.629-9.509-16.311-2.683-1.583-5.913-2.519-9.36-2.519-2.954 0-5.748 0.687-8.23 1.909l0.109-0.049-226.011 210.432c-0.859 0.817-1.818 1.543-2.852 2.154l-0.073 0.040c-3.51 2.067-7.566 3.813-11.845 5.030l-0.37 0.090 268.142 268.215zM849.92 110.226c-182.272-182.272-476.306-186.075-663.406-11.703l196.023 196.023h17.262c2.853 0 5.632-0.658 8.192-1.902l226.011-210.359c0.863-0.806 1.82-1.531 2.849-2.151l0.077-0.043c7.7-4.619 16.989-7.351 26.917-7.351 29.234 0 52.935 23.688 52.955 52.917v503.152l144.823 144.823c174.373-187.099 170.569-481.134-11.703-663.406z" />
<glyph unicode="&#xe93d;" glyph-name="eyeglasses" data-tags="eyeglasses" horiz-adv-x="2560" d="M2517.376 533.376h-93.056c-40.576 241.664-249.6 426.624-501.248 426.624-0.149 0-0.326 0-0.503 0-246.822 0-453.105-173.567-503.454-405.305l-0.619-3.399c-36.811 32.447-85.254 52.466-138.361 53.119l-0.135 0.001c-53.242-0.654-101.685-20.673-138.73-53.323l0.234 0.203c-47.616 232.96-252.928 408.704-498.432 408.704-0.166 0-0.362 0-0.558 0-268.226 0-488.493-205.332-512.193-467.385l-0.145-1.992h-87.552c-23.541 0-42.624-19.083-42.624-42.624s19.083-42.624 42.624-42.624v0h87.552c23.844-264.044 244.112-469.376 512.338-469.376 0.196 0 0.392 0 0.588 0h-0.030c275.968 0 500.736 222.208 508.16 497.92 36.48 54.912 81.792 85.248 128.768 85.248s92.288-30.464 128.768-85.248c7.552-275.712 235.136-497.92 514.304-497.92 280.576 0 508.928 229.632 508.928 512h85.376c23.576 0 42.688 19.112 42.688 42.688s-19.112 42.688-42.688 42.688v0zM643.072 21.376c-236.928 0-429.696 191.36-429.696 426.624s192.768 426.624 429.696 426.624c237.568 0 423.68-187.264 423.68-426.624 0-239.232-186.112-426.624-423.68-426.624zM1923.072 21.376c-236.928 0-429.696 191.36-429.696 426.624s192.768 426.624 429.696 426.624c237.568 0 423.68-187.392 423.68-426.624s-186.112-426.624-423.68-426.624z" />
<glyph unicode="&#xe93e;" glyph-name="user-login" data-tags="user-4" d="M1024 448c0 282.317-229.683 512-512 512s-512-229.683-512-512c0-0.053 0-0.116 0-0.179 0-149.111 63.901-283.296 165.813-376.666l0.382-0.345-0.512-0.41 16.64-13.978c1.024-0.922 2.253-1.69 3.328-2.56 10.594-8.842 22.437-17.872 34.667-26.384l1.685-1.11c9.984-6.81 20.173-13.312 30.566-19.456l6.861-3.994c11.418-6.502 23.040-12.595 35.021-18.227l2.662-1.178c35.718-17.067 77.222-30.67 120.671-38.736l3.131-0.483 3.43-0.614c13.466-2.304 27.136-4.198 40.909-5.427l5.018-0.41c13.773-1.126 27.648-1.843 41.728-1.843 13.926 0 27.699 0.717 41.37 1.843l5.171 0.358c13.722 1.28 27.238 3.072 40.55 5.376l3.482 0.614c45.947 8.367 86.892 21.634 125.227 39.554l-3.115-1.308 4.25 1.946c27.544 13.039 50.922 26.616 73.046 41.88l-1.725-1.125c3.43 2.355 6.81 4.813 10.24 7.27 8.192 5.888 16.179 11.981 24.013 18.33 1.69 1.382 3.584 2.56 5.274 4.045l17.050 14.182-0.512 0.461c103.171 93.787 167.68 228.53 167.68 378.34 0 0.081 0 0.163 0 0.244v-0.012zM37.222 448c0 261.786 212.992 474.778 474.778 474.778s474.778-212.992 474.778-474.778c0-0.020 0-0.043 0-0.066 0-141.031-61.644-267.664-159.458-354.424l-0.491-0.428c-4.732 3.365-10.16 6.679-15.815 9.618l-0.774 0.366-157.696 78.848c-13.674 6.913-22.887 20.854-22.887 36.948 0 0.043 0 0.085 0 0.128v-0.007 55.091c3.635 4.506 7.475 9.574 11.469 15.206 19.557 27.442 36.033 58.994 47.878 92.727l0.813 2.659c23.151 11.056 38.861 34.282 38.861 61.177 0 0.021 0 0.041 0 0.062v-0.003 65.997c0 16.128-5.939 31.744-16.538 44.083v86.886c0.973 9.728 4.403 64.205-35.072 109.21-34.304 39.168-89.805 58.931-165.069 58.931s-130.765-19.814-165.069-58.982c-39.424-45.005-36.045-99.533-35.072-109.158v-86.938c-10.598-12.288-16.538-27.955-16.538-44.083v-66.048c0-20.48 9.216-39.578 24.986-52.48 12.355-45.436 32.128-85.111 58.196-119.785l-0.647 0.898v-53.914c0-15.155-8.243-29.133-21.606-36.454l-147.2-80.282c-4.71-2.56-9.37-5.53-14.029-8.858-97.036 87.094-157.798 212.921-157.798 352.94 0 0.048 0 0.095 0 0.143v-0.007z" />
<glyph unicode="&#xe93f;" glyph-name="lock" data-tags="lock" horiz-adv-x="768" d="M746.65 576h-64v85.35c-0.204 164.857-133.792 298.446-298.63 298.65h-0.020c-164.857-0.204-298.446-133.792-298.65-298.63v-85.37h-64c-0.015 0-0.033 0-0.051 0-11.763 0-21.299-9.536-21.299-21.299 0-0.018 0-0.036 0-0.054v0.003-533.299c0-47.104 38.246-85.35 85.35-85.35h597.299c47.104 0 85.35 38.246 85.35 85.35v533.299c0 0.015 0 0.033 0 0.051 0 11.763-9.536 21.299-21.299 21.299-0.018 0-0.036 0-0.054 0h0.003zM447.898 130.355c0.079-0.691 0.124-1.492 0.124-2.304 0-11.81-9.565-21.385-21.371-21.402h-85.301c-0.008 0-0.018 0-0.028 0-11.792 0-21.35 9.559-21.35 21.35 0 0.83 0.047 1.648 0.139 2.454l-0.009-0.098 13.466 121.037c-21.261 15.513-34.919 40.342-34.919 68.362 0 0.086 0 0.173 0 0.259v-0.013c0 47.104 38.298 85.35 85.35 85.35 47.104 0 85.35-38.298 85.35-85.35 0-27.597-13.056-52.736-34.918-68.608l13.466-121.037zM554.65 576h-341.299v85.35c0.116 94.2 76.449 170.533 170.638 170.65h0.011c94.2-0.116 170.533-76.449 170.65-170.638v-85.361z" />
<glyph unicode="&#xe940;" glyph-name="drag" data-tags="eyeglasses-2" horiz-adv-x="2560" d="M843.294 839.529c-24.757 0-47.828-7.53-66.983-20.36-16.504 46.862-61.259 80.595-113.723 80.595-24.757 0-47.828-7.53-66.983-20.36-16.504 46.865-61.259 80.598-113.723 80.598s-97.22-33.733-113.723-80.595c-19.155 12.83-42.226 20.36-66.983 20.36-66.44 0-120.471-54.031-120.471-120.471v-138.118l-58.729-58.67c-39.815-39.877-61.742-92.761-61.742-149.082v-91.256c0-56.321 21.925-109.268 61.742-149.142l120.531-120.471c88.004-88.063 205.16-136.554 329.729-136.554 215.884 0 391.53 175.646 391.53 391.53v391.53c-0.003 66.438-54.034 120.469-120.471 120.469zM903.529 327.53c0-182.693-148.662-331.293-331.355-331.293-108.483 0-210.463 42.226-287.082 118.904l-120.531 120.471c-28.43 28.492-44.092 66.319-44.092 106.495v91.256c0 40.238 15.662 78.065 44.092 106.495l16.145 16.142v-47.766c0-16.625 13.494-30.119 30.119-30.119s30.116 13.494 30.116 30.119v120.409c0 0.059 0 0.059 0 0.121v150.528c0 33.191 26.984 60.234 60.234 60.234s60.237-27.044 60.237-60.234v-90.353c0-16.625 13.494-30.119 30.119-30.119s30.119 13.494 30.119 30.119v150.587c0 33.191 26.984 60.234 60.234 60.234s60.234-27.044 60.234-60.234v-150.587c0-16.625 13.494-30.119 30.119-30.119s30.119 13.494 30.119 30.119v90.353c0 33.191 26.984 60.234 60.234 60.234s60.234-27.044 60.234-60.234v-90.353c0-16.625 13.494-30.119 30.119-30.119s30.119 13.494 30.119 30.119v30.119c0 33.191 26.984 60.234 60.234 60.234s60.234-27.047 60.234-60.234v-391.53z" />
<glyph unicode="&#xe941;" glyph-name="speaker" data-tags="speaker" d="M587.703 833.463c-7.548 4.466-16.635 7.106-26.339 7.106-9.906 0-19.17-2.751-27.070-7.53l0.234 0.131c-1.106-0.658-2.065-1.384-2.934-2.202l0.008 0.008-226.011-210.432c-2.392-1.19-5.209-1.891-8.189-1.902h-142.046c-29.257 0-52.955-23.771-52.955-52.955v-218.331c0-29.184 23.771-52.955 52.955-52.955h142.117c2.779 0 5.559-0.658 8.119-1.829l226.011-210.432c0.863-0.806 1.82-1.531 2.849-2.151l0.077-0.043c7.7-4.619 16.989-7.351 26.917-7.351 29.234 0 52.935 23.688 52.955 52.917v661.945c0.001 0.129 0.002 0.281 0.002 0.433 0 19.49-10.647 36.494-26.442 45.512l-0.257 0.135zM580.242 125.513c0-9.801-6.583-14.629-9.509-16.311-2.683-1.583-5.913-2.519-9.36-2.519-2.954 0-5.748 0.687-8.23 1.909l0.109-0.049-226.011 210.432c-0.859 0.817-1.818 1.543-2.852 2.154l-0.073 0.040c-7.678 4.596-16.939 7.314-26.835 7.314-0.029 0-0.058 0-0.086 0h-142.039c-10.391 0.042-18.798 8.474-18.798 18.871 0 0 0 0 0 0v0 218.405c0 10.386 8.411 18.871 18.798 18.871h142.117c9.873 0.012 19.11 2.729 27.012 7.448l-0.242-0.134c1.137 0.648 2.121 1.375 3.008 2.203l-0.009-0.009 226.011 210.432c2.383 1.192 5.192 1.89 8.164 1.89 3.461 0 6.702-0.947 9.476-2.595l-0.086 0.047c2.853-1.609 9.509-6.437 9.509-16.311v-661.943zM713.947 664.869c-3.095-3.086-5.009-7.354-5.009-12.069s1.915-8.983 5.009-12.068v0c49.339-49.454 79.848-117.713 79.848-193.097s-30.509-143.643-79.854-193.103l0.005 0.005c-3.089-3.089-4.999-7.356-4.999-12.069 0-9.426 7.641-17.068 17.068-17.068 4.713 0 8.98 1.91 12.069 4.999v0c55.511 55.634 89.837 132.425 89.837 217.234s-34.326 161.601-89.842 217.24l0.006-0.006c-3.086 3.095-7.354 5.009-12.069 5.009s-8.983-1.915-12.068-5.009v0zM677.669 613.669c-3.089 3.089-7.356 4.999-12.069 4.999-9.426 0-17.068-7.641-17.068-17.068 0-4.713 1.91-8.98 4.999-12.069v0c33.983-34.066 54.996-81.084 54.996-133.010s-21.013-98.944-55-133.014l0.004 0.004c-3.089-3.089-4.999-7.356-4.999-12.069 0-9.426 7.641-17.068 17.068-17.068 4.713 0 8.98 1.91 12.069 4.999v0c40.172 40.238 65.015 95.792 65.015 157.147s-24.843 116.909-65.018 157.151l0.003-0.003zM512 960c-282.331 0-512-229.669-512-512s229.669-512 512-512 512 229.669 512 512-229.669 512-512 512zM512-29.842c-263.788 0.291-477.551 214.054-477.842 477.814v0.028c0.291 263.788 214.054 477.551 477.814 477.842h0.028c263.788-0.291 477.551-214.054 477.842-477.814v-0.028c-0.291-263.788-214.054-477.551-477.814-477.842h-0.028z" />
<glyph unicode="&#xe942;" glyph-name="log-manager" data-tags="log-manager" d="M352.642 578.57h318.7v-46.545h-318.7v46.545zM352.642 421.468h318.7v-46.545h-318.7v46.545zM352.642 500.019h318.7v-46.545h-318.7v46.545zM511.983 960c-282.757 0-511.983-229.236-511.983-511.99 0-282.75 229.226-512 511.983-512s512.010 229.25 512.010 512c-0.003 282.754-229.253 511.99-512.010 511.99zM633.815 739.618l107.578-97.857h-107.578v97.857zM582.912 227.581v-71.185h-238.114c-34.365 0-62.208 27.849-62.208 62.208v458.807c0 34.359 27.849 62.208 62.208 62.208h262.448v-124.416h134.137v-272.258l-388.741-0.034v-35.41h310.238v-43.141h-310.238v-35.41h230.27v-1.369zM834.249 171.564h-79.957v-79.957h-56.003v79.957h-79.968v56.013h79.968v79.957h56.003v-79.957h79.957c0-0.003 0-56.013 0-56.013z" />
<glyph unicode="&#xf00d;" glyph-name="close, remove2, times" data-tags="close, remove, times" horiz-adv-x="805" d="M741.714 195.428c0-14.286-5.714-28.571-16-38.857l-77.714-77.714c-10.286-10.286-24.571-16-38.857-16s-28.571 5.714-38.857 16l-168 168-168-168c-10.286-10.286-24.571-16-38.857-16s-28.571 5.714-38.857 16l-77.714 77.714c-10.286 10.286-16 24.571-16 38.857s5.714 28.571 16 38.857l168 168-168 168c-10.286 10.286-16 24.571-16 38.857s5.714 28.571 16 38.857l77.714 77.714c10.286 10.286 24.571 16 38.857 16s28.571-5.714 38.857-16l168-168 168 168c10.286 10.286 24.571 16 38.857 16s28.571-5.714 38.857-16l77.714-77.714c10.286-10.286 16-24.571 16-38.857s-5.714-28.571-16-38.857l-168-168 168-168c10.286-10.286 16-24.571 16-38.857z" />
<glyph unicode="&#xf013;" glyph-name="cog2, gear" data-tags="cog, gear" horiz-adv-x="878" d="M512-73.143c-282.77 0-512 229.23-512 512s229.23 512 512 512c282.77 0 512-229.23 512-512s-229.23-512-512-512zM512-36.572c262.572 0 475.429 212.857 475.429 475.429s-212.857 475.429-475.429 475.429c-262.572 0-475.429-212.857-475.429-475.429s212.857-475.429 475.429-475.429zM840.275 515.636l-51.339 8.709c-5.348 17.266-12.224 33.92-20.627 49.811l30.253 42.324c12.835 18.030 10.848 42.63-4.889 58.215l-45.533 45.533c-8.556 8.557-19.863 13.293-31.934 13.293-9.473 0-18.488-2.903-26.128-8.404l-42.477-30.253c-16.502 8.709-33.767 15.891-51.644 21.238l-8.556 50.728c-3.667 21.85-22.461 37.74-44.616 37.74h-64.326c-22.155 0-40.949-15.891-44.616-37.74l-8.862-51.95c-17.113-5.348-33.767-12.376-49.658-20.933l-42.018 30.253c-7.64 5.501-16.807 8.404-26.281 8.404-12.071 0-23.53-4.737-31.934-13.293l-45.685-45.533c-15.585-15.585-17.724-40.185-4.889-58.215l30.559-42.935c-8.404-16.043-15.127-32.698-20.322-49.964l-50.728-8.557c-21.85-3.667-37.74-22.461-37.74-44.616v-64.327c0-22.155 15.891-40.949 37.74-44.616l51.95-8.862c5.348-17.113 12.376-33.768 20.933-49.658l-30.1-41.866c-12.835-18.030-10.848-42.63 4.889-58.215l45.533-45.533c8.556-8.557 19.863-13.293 31.934-13.293 9.473 0 18.488 2.903 26.128 8.404l42.935 30.559c15.432-8.098 31.628-14.668 48.283-19.863l8.556-51.339c3.667-21.85 22.461-37.74 44.616-37.74h64.479c22.155 0 40.949 15.891 44.616 37.74l8.709 51.339c17.266 5.348 33.92 12.224 49.811 20.627l42.324-30.253c7.64-5.501 16.807-8.404 26.281-8.404 12.071 0 23.377 4.737 31.934 13.293l45.533 45.533c15.585 15.585 17.724 40.185 4.889 58.215l-30.253 42.477c8.404 16.043 15.432 32.698 20.627 49.811l51.339 8.557c21.85 3.667 37.74 22.461 37.74 44.616v64.327c0.306 22.155-15.585 40.949-37.434 44.616zM836.761 406.694c0-1.986-1.375-3.667-3.361-3.973l-64.173-10.696c-8.098-1.375-14.515-7.334-16.502-15.127-5.806-22.461-14.668-44.005-26.586-64.021-4.125-7.029-3.82-15.738 0.917-22.461l37.74-53.173c1.070-1.528 0.917-3.82-0.458-5.195l-45.533-45.533c-1.070-1.070-2.139-1.222-2.903-1.222-0.917 0-1.681 0.306-2.292 0.764l-53.019 37.74c-6.57 4.737-15.432 5.042-22.461 0.917-20.016-11.918-41.56-20.78-64.021-26.586-7.945-1.986-13.904-8.557-15.127-16.502l-10.848-64.174c-0.306-1.986-1.986-3.361-3.973-3.361h-64.326c-1.986 0-3.667 1.375-3.973 3.361l-10.696 64.174c-1.375 8.098-7.334 14.516-15.127 16.502-21.85 5.653-42.935 14.363-62.645 25.67-3.209 1.834-6.876 2.75-10.39 2.75-4.125 0-8.404-1.222-11.918-3.82l-53.478-38.046c-0.764-0.458-1.528-0.764-2.292-0.764-0.611 0-1.834 0.153-2.903 1.222l-45.533 45.533c-1.375 1.375-1.528 3.514-0.458 5.195l37.587 52.714c4.737 6.723 5.042 15.585 0.917 22.614-11.918 19.863-21.086 41.407-26.892 63.868-2.139 7.793-8.556 13.752-16.502 15.127l-64.632 11.001c-1.986 0.306-3.361 1.986-3.361 3.973v64.327c0 1.986 1.375 3.667 3.361 3.973l63.715 10.696c8.098 1.375 14.668 7.334 16.655 15.279 5.653 22.461 14.363 44.158 26.128 64.174 4.125 7.029 3.667 15.738-1.070 22.308l-38.046 53.478c-1.070 1.528-0.917 3.82 0.458 5.195l45.533 45.533c1.070 1.070 2.139 1.222 2.903 1.222 0.917 0 1.681-0.306 2.292-0.764l52.714-37.588c6.723-4.737 15.585-5.042 22.613-0.917 19.863 11.918 41.407 21.086 63.868 26.892 7.792 2.139 13.751 8.557 15.127 16.502l11.001 64.632c0.306 1.986 1.986 3.361 3.973 3.361h64.326c1.986 0 3.667-1.375 3.973-3.361l10.696-63.715c1.375-8.098 7.334-14.668 15.279-16.655 23.072-5.806 45.074-14.821 65.549-26.892 7.029-4.125 15.738-3.82 22.461 0.917l52.714 37.893c0.764 0.458 1.528 0.764 2.292 0.764 0.611 0 1.834-0.153 2.903-1.222l45.533-45.533c1.375-1.375 1.528-3.514 0.458-5.195l-37.74-53.020c-4.737-6.57-5.042-15.432-0.917-22.461 11.918-20.016 20.78-41.56 26.586-64.021 1.986-7.945 8.556-13.904 16.502-15.127l64.173-10.848c1.986-0.306 3.361-1.986 3.361-3.973v-64.327h-0.153zM512 603.428c-90.809 0-164.571-73.762-164.571-164.571s73.762-164.571 164.571-164.571c90.809 0 164.571 73.762 164.571 164.571s-73.762 164.571-164.571 164.571zM512 310.857c-70.626 0-128 57.374-128 128s57.374 128 128 128c70.626 0 128-57.374 128-128s-57.374-128-128-128z" />
<glyph unicode="&#xf016;" glyph-name="file-o" data-tags="file-o" horiz-adv-x="878" d="M838.857 733.714c21.143-21.143 38.857-63.429 38.857-93.714v-658.286c0-30.286-24.571-54.857-54.857-54.857h-768c-30.286 0-54.857 24.571-54.857 54.857v914.286c0 30.286 24.571 54.857 54.857 54.857h512c30.286 0 72.571-17.714 93.714-38.857zM585.143 873.143v-214.857h214.857c-3.429 9.714-8.571 19.429-12.571 23.429l-178.857 178.857c-4 4-13.714 9.143-23.429 12.571zM804.571 0v585.143h-237.714c-30.286 0-54.857 24.571-54.857 54.857v237.714h-438.857v-877.714h731.429z" />
<glyph unicode="&#xf02b;" glyph-name="tag" data-tags="tag" horiz-adv-x="866" d="M256 694.857c0 40.571-32.571 73.143-73.143 73.143s-73.143-32.571-73.143-73.143 32.571-73.143 73.143-73.143 73.143 32.571 73.143 73.143zM865.714 365.714c0-19.429-8-38.286-21.143-51.429l-280.571-281.143c-13.714-13.143-32.571-21.143-52-21.143s-38.286 8-51.429 21.143l-408.571 409.143c-29.143 28.571-52 84-52 124.571v237.714c0 40 33.143 73.143 73.143 73.143h237.714c40.571 0 96-22.857 125.143-52l408.571-408c13.143-13.714 21.143-32.571 21.143-52z" />
<glyph unicode="&#xf02c;" glyph-name="tags" data-tags="tags" horiz-adv-x="1085" d="M256 694.857c0 40.571-32.571 73.143-73.143 73.143s-73.143-32.571-73.143-73.143 32.571-73.143 73.143-73.143 73.143 32.571 73.143 73.143zM865.714 365.714c0-19.429-8-38.286-21.143-51.429l-280.571-281.143c-13.714-13.143-32.571-21.143-52-21.143s-38.286 8-51.429 21.143l-408.571 409.143c-29.143 28.571-52 84-52 124.571v237.714c0 40 33.143 73.143 73.143 73.143h237.714c40.571 0 96-22.857 125.143-52l408.571-408c13.143-13.714 21.143-32.571 21.143-52zM1085.143 365.714c0-19.429-8-38.286-21.143-51.429l-280.571-281.143c-13.714-13.143-32.571-21.143-52-21.143-29.714 0-44.571 13.714-64 33.714l268.571 268.571c13.143 13.143 21.143 32 21.143 51.429s-8 38.286-21.143 52l-408.571 408c-29.143 29.143-84.571 52-125.143 52h128c40.571 0 96-22.857 125.143-52l408.571-408c13.143-13.714 21.143-32.571 21.143-52z" />
<glyph unicode="&#xf053;" glyph-name="chevron-left" data-tags="chevron-left" horiz-adv-x="768" d="M669.143 778.857l-303.429-303.429 303.429-303.429c14.286-14.286 14.286-37.143 0-51.429l-94.857-94.857c-14.286-14.286-37.143-14.286-51.429 0l-424 424c-14.286 14.286-14.286 37.143 0 51.429l424 424c14.286 14.286 37.143 14.286 51.429 0l94.857-94.857c14.286-14.286 14.286-37.143 0-51.429z" />
<glyph unicode="&#xf054;" glyph-name="chevron-right" data-tags="chevron-right" horiz-adv-x="695" d="M632.571 449.714l-424-424c-14.286-14.286-37.143-14.286-51.429 0l-94.857 94.857c-14.286 14.286-14.286 37.143 0 51.429l303.429 303.429-303.429 303.429c-14.286 14.286-14.286 37.143 0 51.429l94.857 94.857c14.286 14.286 37.143 14.286 51.429 0l424-424c14.286-14.286 14.286-37.143 0-51.429z" />
<glyph unicode="&#xf061;" glyph-name="arrow-right" data-tags="arrow-right" horiz-adv-x="841" d="M841.143 402.286c0-19.429-7.429-38.286-21.143-52l-372-372c-13.714-13.143-32.571-21.143-52-21.143s-37.714 8-51.429 21.143l-42.857 42.857c-13.714 13.714-21.714 32.571-21.714 52s8 38.286 21.714 52l167.429 167.429h-402.286c-41.143 0-66.857 34.286-66.857 73.143v73.143c0 38.857 25.714 73.143 66.857 73.143h402.286l-167.429 168c-13.714 13.143-21.714 32-21.714 51.429s8 38.286 21.714 51.429l42.857 42.857c13.714 13.714 32 21.714 51.429 21.714s38.286-8 52-21.714l372-372c13.714-13.143 21.143-32 21.143-51.429z" />
<glyph unicode="&#xf071;" glyph-name="exclamation-triangle, warning" data-tags="exclamation-triangle, warning" d="M585.143 165.143v108.571c0 10.286-8 18.857-18.286 18.857h-109.714c-10.286 0-18.286-8.571-18.286-18.857v-108.571c0-10.286 8-18.857 18.286-18.857h109.714c10.286 0 18.286 8.571 18.286 18.857zM584 378.857l10.286 262.286c0 3.429-1.714 8-5.714 10.857-3.429 2.857-8.571 6.286-13.714 6.286h-125.714c-5.143 0-10.286-3.429-13.714-6.286-4-2.857-5.714-8.571-5.714-12l9.714-261.143c0-7.429 8.571-13.143 19.429-13.143h105.714c10.286 0 18.857 5.714 19.429 13.143zM576 912.571l438.857-804.571c12.571-22.286 12-49.714-1.143-72s-37.143-36-62.857-36h-877.714c-25.714 0-49.714 13.714-62.857 36s-13.714 49.714-1.143 72l438.857 804.571c12.571 23.429 37.143 38.286 64 38.286s51.429-14.857 64-38.286z" />
<glyph unicode="&#xf073;" glyph-name="calendar" data-tags="calendar" horiz-adv-x="951" d="M73.143 0h164.571v164.571h-164.571v-164.571zM274.286 0h182.857v164.571h-182.857v-164.571zM73.143 201.143h164.571v182.857h-164.571v-182.857zM274.286 201.143h182.857v182.857h-182.857v-182.857zM73.143 420.571h164.571v164.571h-164.571v-164.571zM493.714 0h182.857v164.571h-182.857v-164.571zM274.286 420.571h182.857v164.571h-182.857v-164.571zM713.143 0h164.571v164.571h-164.571v-164.571zM493.714 201.143h182.857v182.857h-182.857v-182.857zM292.571 694.857v164.571c0 9.714-8.571 18.286-18.286 18.286h-36.571c-9.714 0-18.286-8.571-18.286-18.286v-164.571c0-9.714 8.571-18.286 18.286-18.286h36.571c9.714 0 18.286 8.571 18.286 18.286zM713.143 201.143h164.571v182.857h-164.571v-182.857zM493.714 420.571h182.857v164.571h-182.857v-164.571zM713.143 420.571h164.571v164.571h-164.571v-164.571zM731.429 694.857v164.571c0 9.714-8.571 18.286-18.286 18.286h-36.571c-9.714 0-18.286-8.571-18.286-18.286v-164.571c0-9.714 8.571-18.286 18.286-18.286h36.571c9.714 0 18.286 8.571 18.286 18.286zM950.857 731.428v-731.429c0-40-33.143-73.143-73.143-73.143h-804.571c-40 0-73.143 33.143-73.143 73.143v731.429c0 40 33.143 73.143 73.143 73.143h73.143v54.857c0 50.286 41.143 91.429 91.429 91.429h36.571c50.286 0 91.429-41.143 91.429-91.429v-54.857h219.429v54.857c0 50.286 41.143 91.429 91.429 91.429h36.571c50.286 0 91.429-41.143 91.429-91.429v-54.857h73.143c40 0 73.143-33.143 73.143-73.143z" />
<glyph unicode="&#xf077;" glyph-name="chevron-up" data-tags="chevron-up" d="M961.714 190.286l-94.857-94.286c-14.286-14.286-37.143-14.286-51.429 0l-303.429 303.429-303.429-303.429c-14.286-14.286-37.143-14.286-51.429 0l-94.857 94.286c-14.286 14.286-14.286 37.714 0 52l424 423.429c14.286 14.286 37.143 14.286 51.429 0l424-423.429c14.286-14.286 14.286-37.714 0-52z" />
<glyph unicode="&#xf078;" glyph-name="chevron-down" data-tags="chevron-down" d="M961.714 489.143l-424-423.429c-14.286-14.286-37.143-14.286-51.429 0l-424 423.429c-14.286 14.286-14.286 37.714 0 52l94.857 94.286c14.286 14.286 37.143 14.286 51.429 0l303.429-303.429 303.429 303.429c14.286 14.286 37.143 14.286 51.429 0l94.857-94.286c14.286-14.286 14.286-37.714 0-52z" />
<glyph unicode="&#xf080;" glyph-name="bar-chart, bar-chart-o" data-tags="bar-chart, bar-chart-o" horiz-adv-x="1170" d="M365.714 438.857v-292.571h-146.286v292.571h146.286zM585.143 731.428v-585.143h-146.286v585.143h146.286zM1170.286 73.143v-73.143h-1170.286v877.714h73.143v-804.571h1097.143zM804.571 585.143v-438.857h-146.286v438.857h146.286zM1024 804.571v-658.286h-146.286v658.286h146.286z" />
<glyph unicode="&#xf085;" glyph-name="cogs, gears" data-tags="cogs, gears" horiz-adv-x="1097" d="M512 438.857c0 80.571-65.714 146.286-146.286 146.286s-146.286-65.714-146.286-146.286 65.714-146.286 146.286-146.286 146.286 65.714 146.286 146.286zM950.857 146.286c0 40-33.143 73.143-73.143 73.143s-73.143-33.143-73.143-73.143c0-40.571 33.143-73.143 73.143-73.143 40.571 0 73.143 33.143 73.143 73.143zM950.857 731.428c0 40-33.143 73.143-73.143 73.143s-73.143-33.143-73.143-73.143c0-40.571 33.143-73.143 73.143-73.143 40.571 0 73.143 33.143 73.143 73.143zM731.429 490.857v-105.714c0-7.429-5.714-16-13.143-17.143l-88.571-13.714c-4.571-14.857-10.857-29.143-18.286-43.429 16-22.857 33.143-44 51.429-65.714 2.286-3.429 4-6.857 4-11.429 0-4-1.143-8-4-10.857-11.429-15.429-75.429-85.143-92-85.143-4.571 0-8.571 1.714-12 4l-65.714 51.429c-14.286-7.429-28.571-13.143-44-17.714-2.857-29.143-5.714-60.571-13.143-88.571-2.286-8-9.143-13.714-17.143-13.714h-106.286c-8 0-16 6.286-17.143 14.286l-13.143 87.429c-14.857 4.571-29.143 10.857-42.857 17.714l-67.429-50.857c-2.857-2.857-7.429-4-11.429-4-4.571 0-8.571 1.714-12 4.571-14.857 13.714-82.286 74.857-82.286 91.429 0 4 1.714 7.429 4 10.857 16.571 21.714 33.714 42.857 50.286 65.143-8 15.429-14.857 30.857-20 46.857l-86.857 13.714c-8 1.143-13.714 8.571-13.714 16.571v105.714c0 7.429 5.714 16 13.143 17.143l88.571 13.714c4.571 14.857 10.857 29.143 18.286 43.429-16 22.857-33.143 44-51.429 65.714-2.286 3.429-4 7.429-4 11.429s1.143 8 4 11.429c11.429 15.429 75.429 84.571 92 84.571 4.571 0 8.571-1.714 12-4l65.714-51.429c14.286 7.429 28.571 13.143 44 18.286 2.857 28.571 5.714 60 13.143 88 2.286 8 9.143 13.714 17.143 13.714h106.286c8 0 16-6.286 17.143-14.286l13.143-87.429c14.857-4.571 29.143-10.857 42.857-17.714l67.429 50.857c3.429 2.857 7.429 4 11.429 4 4.571 0 8.571-1.714 12-4.571 14.857-13.714 82.286-75.429 82.286-91.429 0-4-1.714-7.429-4-10.857-16.571-22.286-33.714-42.857-49.714-65.143 7.429-15.429 14.286-30.857 19.429-46.857l86.857-13.143c8-1.714 13.714-9.143 13.714-17.143zM1097.143 186.286v-80c0-8.571-73.714-16.571-85.143-17.714-4.571-10.857-10.286-20.571-17.143-29.714 5.143-11.429 29.143-68.571 29.143-78.857 0-1.714-0.571-2.857-2.286-4-6.857-4-68-40.571-70.857-40.571-7.429 0-50.286 57.143-56 65.714-5.714-0.571-11.429-1.143-17.143-1.143s-11.429 0.571-17.143 1.143c-5.714-8.571-48.571-65.714-56-65.714-2.857 0-64 36.571-70.857 40.571-1.714 1.143-2.286 2.857-2.286 4 0 9.714 24 67.429 29.143 78.857-6.857 9.143-12.571 18.857-17.143 29.714-11.429 1.143-85.143 9.143-85.143 17.714v80c0 8.571 73.714 16.571 85.143 17.714 4.571 10.286 10.286 20.571 17.143 29.714-5.143 11.429-29.143 69.143-29.143 78.857 0 1.143 0.571 2.857 2.286 4 6.857 3.429 68 40 70.857 40 7.429 0 50.286-56.571 56-65.143 5.714 0.571 11.429 1.143 17.143 1.143s11.429-0.571 17.143-1.143c16 22.286 33.143 44.571 52.571 64l3.429 1.143c2.857 0 64-36 70.857-40 1.714-1.143 2.286-2.857 2.286-4 0-10.286-24-67.429-29.143-78.857 6.857-9.143 12.571-19.429 17.143-29.714 11.429-1.143 85.143-9.143 85.143-17.714zM1097.143 771.428v-80c0-8.571-73.714-16.571-85.143-17.714-4.571-10.857-10.286-20.571-17.143-29.714 5.143-11.429 29.143-68.571 29.143-78.857 0-1.714-0.571-2.857-2.286-4-6.857-4-68-40.571-70.857-40.571-7.429 0-50.286 57.143-56 65.714-5.714-0.571-11.429-1.143-17.143-1.143s-11.429 0.571-17.143 1.143c-5.714-8.571-48.571-65.714-56-65.714-2.857 0-64 36.571-70.857 40.571-1.714 1.143-2.286 2.857-2.286 4 0 9.714 24 67.429 29.143 78.857-6.857 9.143-12.571 18.857-17.143 29.714-11.429 1.143-85.143 9.143-85.143 17.714v80c0 8.571 73.714 16.571 85.143 17.714 4.571 10.286 10.286 20.571 17.143 29.714-5.143 11.429-29.143 69.143-29.143 78.857 0 1.143 0.571 2.857 2.286 4 6.857 3.429 68 40 70.857 40 7.429 0 50.286-56.571 56-65.143 5.714 0.571 11.429 1.143 17.143 1.143s11.429-0.571 17.143-1.143c16 22.286 33.143 44.571 52.571 64l3.429 1.143c2.857 0 64-36 70.857-40 1.714-1.143 2.286-2.857 2.286-4 0-10.286-24-67.429-29.143-78.857 6.857-9.143 12.571-19.429 17.143-29.714 11.429-1.143 85.143-9.143 85.143-17.714z" />
<glyph unicode="&#xf0c0;" glyph-name="group, users" data-tags="group, users" horiz-adv-x="1097" d="M338.857 438.857c-59.429-1.714-113.143-27.429-151.429-73.143h-76.571c-57.143 0-110.857 27.429-110.857 90.857 0 46.286-1.714 201.714 70.857 201.714 12 0 71.429-48.571 148.571-48.571 26.286 0 51.429 4.571 76 13.143-1.714-12.571-2.857-25.143-2.857-37.714 0-52 16.571-103.429 46.286-146.286zM950.857 74.857c0-92.571-61.143-148-152.571-148h-499.429c-91.429 0-152.571 55.429-152.571 148 0 129.143 30.286 327.429 197.714 327.429 19.429 0 90.286-79.429 204.571-79.429s185.143 79.429 204.571 79.429c167.429 0 197.714-198.286 197.714-327.429zM365.714 804.571c0-80.571-65.714-146.286-146.286-146.286s-146.286 65.714-146.286 146.286 65.714 146.286 146.286 146.286 146.286-65.714 146.286-146.286zM768 585.143c0-121.143-98.286-219.429-219.429-219.429s-219.429 98.286-219.429 219.429 98.286 219.429 219.429 219.429 219.429-98.286 219.429-219.429zM1097.143 456.571c0-63.429-53.714-90.857-110.857-90.857h-76.571c-38.286 45.714-92 71.429-151.429 73.143 29.714 42.857 46.286 94.286 46.286 146.286 0 12.571-1.143 25.143-2.857 37.714 24.571-8.571 49.714-13.143 76-13.143 77.143 0 136.571 48.571 148.571 48.571 72.571 0 70.857-155.429 70.857-201.714zM1024 804.571c0-80.571-65.714-146.286-146.286-146.286s-146.286 65.714-146.286 146.286 65.714 146.286 146.286 146.286 146.286-65.714 146.286-146.286z" />
<glyph unicode="&#xf0c1;" glyph-name="chain, link" data-tags="chain, link" horiz-adv-x="951" d="M832 256c0 14.857-5.714 28.571-16 38.857l-118.857 118.857c-10.286 10.286-24.571 16-38.857 16-16.571 0-29.714-6.286-41.143-18.286 18.857-18.857 41.143-34.857 41.143-64 0-30.286-24.571-54.857-54.857-54.857-29.143 0-45.143 22.286-64 41.143-12-11.429-18.857-24.571-18.857-41.714 0-14.286 5.714-28.571 16-38.857l117.714-118.286c10.286-10.286 24.571-15.429 38.857-15.429s28.571 5.143 38.857 14.857l84 83.429c10.286 10.286 16 24 16 38.286zM430.286 658.857c0 14.286-5.714 28.571-16 38.857l-117.714 118.286c-10.286 10.286-24.571 16-38.857 16s-28.571-5.714-38.857-15.429l-84-83.429c-10.286-10.286-16-24-16-38.286 0-14.857 5.714-28.571 16-38.857l118.857-118.857c10.286-10.286 24.571-15.429 38.857-15.429 16.571 0 29.714 5.714 41.143 17.714-18.857 18.857-41.143 34.857-41.143 64 0 30.286 24.571 54.857 54.857 54.857 29.143 0 45.143-22.286 64-41.143 12 11.429 18.857 24.571 18.857 41.714zM941.714 256c0-43.429-17.714-85.714-48.571-116l-84-83.429c-30.857-30.857-72.571-47.429-116-47.429-44 0-85.714 17.143-116.571 48.571l-117.714 118.286c-30.857 30.857-47.429 72.571-47.429 116 0 45.143 18.286 88 50.286 119.429l-50.286 50.286c-31.429-32-73.714-50.286-118.857-50.286-43.429 0-85.714 17.143-116.571 48l-118.857 118.857c-31.429 31.429-48 72.571-48 116.571 0 43.429 17.714 85.714 48.571 116l84 83.429c30.857 30.857 72.571 47.429 116 47.429 44 0 85.714-17.143 116.571-48.571l117.714-118.286c30.857-30.857 47.429-72.571 47.429-116 0-45.143-18.286-88-50.286-119.429l50.286-50.286c31.429 32 73.714 50.286 118.857 50.286 43.429 0 85.714-17.143 116.571-48l118.857-118.857c31.429-31.429 48-72.571 48-116.571z" />
<glyph unicode="&#xf0ca;" glyph-name="list-ul" data-tags="list-ul" d="M219.429 146.286c0-60.571-49.143-109.714-109.714-109.714s-109.714 49.143-109.714 109.714 49.143 109.714 109.714 109.714 109.714-49.143 109.714-109.714zM219.429 438.857c0-60.571-49.143-109.714-109.714-109.714s-109.714 49.143-109.714 109.714 49.143 109.714 109.714 109.714 109.714-49.143 109.714-109.714zM1024 201.143v-109.714c0-9.714-8.571-18.286-18.286-18.286h-694.857c-9.714 0-18.286 8.571-18.286 18.286v109.714c0 9.714 8.571 18.286 18.286 18.286h694.857c9.714 0 18.286-8.571 18.286-18.286zM219.429 731.428c0-60.571-49.143-109.714-109.714-109.714s-109.714 49.143-109.714 109.714 49.143 109.714 109.714 109.714 109.714-49.143 109.714-109.714zM1024 493.714v-109.714c0-9.714-8.571-18.286-18.286-18.286h-694.857c-9.714 0-18.286 8.571-18.286 18.286v109.714c0 9.714 8.571 18.286 18.286 18.286h694.857c9.714 0 18.286-8.571 18.286-18.286zM1024 786.286v-109.714c0-9.714-8.571-18.286-18.286-18.286h-694.857c-9.714 0-18.286 8.571-18.286 18.286v109.714c0 9.714 8.571 18.286 18.286 18.286h694.857c9.714 0 18.286-8.571 18.286-18.286z" />
<glyph unicode="&#xf0dc;" glyph-name="sort, unsorted" data-tags="sort, unsorted" horiz-adv-x="585" d="M585.143 329.143c0-9.714-4-18.857-10.857-25.714l-256-256c-6.857-6.857-16-10.857-25.714-10.857s-18.857 4-25.714 10.857l-256 256c-6.857 6.857-10.857 16-10.857 25.714 0 20 16.571 36.571 36.571 36.571h512c20 0 36.571-16.571 36.571-36.571zM585.143 548.571c0-20-16.571-36.571-36.571-36.571h-512c-20 0-36.571 16.571-36.571 36.571 0 9.714 4 18.857 10.857 25.714l256 256c6.857 6.857 16 10.857 25.714 10.857s18.857-4 25.714-10.857l256-256c6.857-6.857 10.857-16 10.857-25.714z" />
<glyph unicode="&#xf0dd;" glyph-name="sort-desc, sort-down" data-tags="sort-desc, sort-down" horiz-adv-x="585" d="M585.143 329.143c0-9.714-4-18.857-10.857-25.714l-256-256c-6.857-6.857-16-10.857-25.714-10.857s-18.857 4-25.714 10.857l-256 256c-6.857 6.857-10.857 16-10.857 25.714 0 20 16.571 36.571 36.571 36.571h512c20 0 36.571-16.571 36.571-36.571z" />
<glyph unicode="&#xf0de;" glyph-name="sort-asc, sort-up" data-tags="sort-asc, sort-up" horiz-adv-x="585" d="M585.143 548.571c0-20-16.571-36.571-36.571-36.571h-512c-20 0-36.571 16.571-36.571 36.571 0 9.714 4 18.857 10.857 25.714l256 256c6.857 6.857 16 10.857 25.714 10.857s18.857-4 25.714-10.857l256-256c6.857-6.857 10.857-16 10.857-25.714z" />
</font>
</defs>
</svg>
