<?xml version="1.0" encoding="UTF-8"?>
<svg width="17px" height="23px" viewBox="0 0 17 23" version="1.1" xmlns="http://www.w3.org/2000/svg" xmlns:xlink="http://www.w3.org/1999/xlink">
    <!-- Generator: Sketch 48.2 (47327) - http://www.bohemiancoding.com/sketch -->
    <title>man-user</title>
    <desc>Created with Sketch.</desc>
    <defs></defs>
    <g id="AutoCorrelation-2" stroke="none" stroke-width="1" fill="none" fill-rule="evenodd" transform="translate(-268.000000, -428.000000)">
        <g id="Chord-diagram" transform="translate(238.000000, 384.000000)" fill="#FF0000" fill-rule="nonzero">
            <g id="Icons" transform="translate(30.000000, 44.000000)">
                <g id="man-user">
                    <path d="M8.20497625,9.69672131 C10.4705741,9.69672131 12.307377,7.52605791 12.307377,4.84838898 C12.307377,2.17066341 11.7043277,0 8.20497625,0 C4.70562482,0 4.10245902,2.17066341 4.10245902,4.84838898 C4.10245902,7.52605791 5.93926192,9.69672131 8.20497625,9.69672131 Z" id="Shape"></path>
                    <path d="M16.4006502,18.8441692 C16.3201965,13.5468782 15.6572089,12.0374379 10.583819,11.0819672 C10.583819,11.0819672 9.86966167,12.0315836 8.20510298,12.0315836 C6.54054429,12.0315836 5.82626367,11.0819672 5.82626367,11.0819672 C0.808235719,12.027016 0.104928848,13.5140685 0.012453365,18.672079 C0.00487037543,19.0932658 0.00135630708,19.1153963 0,19.0665034 C0.000308251609,19.1581133 0.00067815354,19.3275658 0.00067815354,19.6230464 C0.00067815354,19.6230464 1.20853126,22.1639344 8.20510298,22.1639344 C15.2015514,22.1639344 16.4095278,19.6230464 16.4095278,19.6230464 C16.4095278,19.4332003 16.4096511,19.3011894 16.4098361,19.2113808 C16.4084798,19.2416172 16.4057671,19.1830101 16.4006502,18.8441692 Z" id="Shape"></path>
                </g>
            </g>
        </g>
    </g>
</svg>