<svg xmlns="http://www.w3.org/2000/svg" width="20" height="8" viewBox="0 0 20 8">
  <g fill="none" fillRule="evenodd">
    <circle cx="5" cy="4" r="4" />
    <circle cx="15" cy="4" r="4" />
    <path
      fillRule="nonzero"
      d="M19.667 3.333h-.727C18.623 1.445 16.99 0 15.024 0a4.025 4.025 0 0 0-3.942 3.193A1.67 1.67 0 0 0 10 2.778a1.67 1.67 0 0 0-1.082.415C8.546 1.373 6.942 0 5.024 0a4.018 4.018 0 0 0-4.007 3.667H.333a.333.333 0 1 0 0 .666h.684A4.018 4.018 0 0 0 5.024 8c2.156 0 3.912-1.736 3.97-3.89.285-.429.639-.666 1.006-.666s.721.238 1.006.666C11.065 6.264 12.843 8 15.024 8 17.216 8 19 6.206 19 4h.667a.333.333 0 1 0 0-.667zm-14.643 4C3.173 7.333 1.667 5.838 1.667 4S3.173.667 5.024.667C6.88.667 8.334 2.13 8.334 4c0 1.869-1.454 3.333-3.31 3.333zm10 0c-1.851 0-3.357-1.495-3.357-3.333S13.173.667 15.024.667c1.856 0 3.31 1.464 3.31 3.333 0 1.869-1.454 3.333-3.31 3.333z"
    />
  </g>
</svg>